<?xml version="1.0" encoding="UTF-8"?>
<!DOCTYPE svg PUBLIC "-//W3C//DTD SVG 1.1//EN" "http://www.w3.org/Graphics/SVG/1.1/DTD/svg11.dtd">
<svg version="1.2" width="434.6mm" height="460.5mm" viewBox="0 0 43460 46050" preserveAspectRatio="xMidYMid" fill-rule="evenodd" stroke-width="28.222" stroke-linejoin="round" xmlns="http://www.w3.org/2000/svg" xmlns:ooo="http://xml.openoffice.org/svg/export" xmlns:xlink="http://www.w3.org/1999/xlink" xmlns:presentation="http://sun.com/xmlns/staroffice/presentation" xmlns:smil="http://www.w3.org/2001/SMIL20/" xmlns:anim="urn:oasis:names:tc:opendocument:xmlns:animation:1.0" xml:space="preserve">
 <defs class="ClipPathGroup">
  <clipPath id="presentation_clip_path" clipPathUnits="userSpaceOnUse">
   <rect x="0" y="0" width="43460" height="46050"/>
  </clipPath>
  <clipPath id="presentation_clip_path_shrink" clipPathUnits="userSpaceOnUse">
   <rect x="43" y="46" width="43374" height="45958"/>
  </clipPath>
 </defs>
 <defs class="TextShapeIndex">
  <g ooo:slide="id1" ooo:id-list="id3 id4 id5 id6 id7 id8 id9 id10 id11 id12 id13"/>
 </defs>
 <defs class="EmbeddedBulletChars">
  <g id="bullet-char-template-57356" transform="scale(0.00048828125,-0.00048828125)">
   <path d="M 580,1141 L 1163,571 580,0 -4,571 580,1141 Z"/>
  </g>
  <g id="bullet-char-template-57354" transform="scale(0.00048828125,-0.00048828125)">
   <path d="M 8,1128 L 1137,1128 1137,0 8,0 8,1128 Z"/>
  </g>
  <g id="bullet-char-template-10146" transform="scale(0.00048828125,-0.00048828125)">
   <path d="M 174,0 L 602,739 174,1481 1456,739 174,0 Z M 1358,739 L 309,1346 659,739 1358,739 Z"/>
  </g>
  <g id="bullet-char-template-10132" transform="scale(0.00048828125,-0.00048828125)">
   <path d="M 2015,739 L 1276,0 717,0 1260,543 174,543 174,936 1260,936 717,1481 1274,1481 2015,739 Z"/>
  </g>
  <g id="bullet-char-template-10007" transform="scale(0.00048828125,-0.00048828125)">
   <path d="M 0,-2 C -7,14 -16,27 -25,37 L 356,567 C 262,823 215,952 215,954 215,979 228,992 255,992 264,992 276,990 289,987 310,991 331,999 354,1012 L 381,999 492,748 772,1049 836,1024 860,1049 C 881,1039 901,1025 922,1006 886,937 835,863 770,784 769,783 710,716 594,584 L 774,223 C 774,196 753,168 711,139 L 727,119 C 717,90 699,76 672,76 641,76 570,178 457,381 L 164,-76 C 142,-110 111,-127 72,-127 30,-127 9,-110 8,-76 1,-67 -2,-52 -2,-32 -2,-23 -1,-13 0,-2 Z"/>
  </g>
  <g id="bullet-char-template-10004" transform="scale(0.00048828125,-0.00048828125)">
   <path d="M 285,-33 C 182,-33 111,30 74,156 52,228 41,333 41,471 41,549 55,616 82,672 116,743 169,778 240,778 293,778 328,747 346,684 L 369,508 C 377,444 397,411 428,410 L 1163,1116 C 1174,1127 1196,1133 1229,1133 1271,1133 1292,1118 1292,1087 L 1292,965 C 1292,929 1282,901 1262,881 L 442,47 C 390,-6 338,-33 285,-33 Z"/>
  </g>
  <g id="bullet-char-template-9679" transform="scale(0.00048828125,-0.00048828125)">
   <path d="M 813,0 C 632,0 489,54 383,161 276,268 223,411 223,592 223,773 276,916 383,1023 489,1130 632,1184 813,1184 992,1184 1136,1130 1245,1023 1353,916 1407,772 1407,592 1407,412 1353,268 1245,161 1136,54 992,0 813,0 Z"/>
  </g>
  <g id="bullet-char-template-8226" transform="scale(0.00048828125,-0.00048828125)">
   <path d="M 346,457 C 273,457 209,483 155,535 101,586 74,649 74,723 74,796 101,859 155,911 209,963 273,989 346,989 419,989 480,963 531,910 582,859 608,796 608,723 608,648 583,586 532,535 482,483 420,457 346,457 Z"/>
  </g>
  <g id="bullet-char-template-8211" transform="scale(0.00048828125,-0.00048828125)">
   <path d="M -4,459 L 1135,459 1135,606 -4,606 -4,459 Z"/>
  </g>
  <g id="bullet-char-template-61548" transform="scale(0.00048828125,-0.00048828125)">
   <path d="M 173,740 C 173,903 231,1043 346,1159 462,1274 601,1332 765,1332 928,1332 1067,1274 1183,1159 1299,1043 1357,903 1357,740 1357,577 1299,437 1183,322 1067,206 928,148 765,148 601,148 462,206 346,322 231,437 173,577 173,740 Z"/>
  </g>
 </defs>
 <defs class="TextEmbeddedBitmaps"/>
 <g>
  <g id="id2" class="Master_Slide">
   <g id="bg-id2" class="Background"/>
   <g id="bo-id2" class="BackgroundObjects"/>
  </g>
 </g>
 <g class="SlideGroup">
  <g>
   <g id="container-id1">
    <g id="id1" class="Slide" clip-path="url(#presentation_clip_path)">
     <g class="Page">
      <g class="Group">
       <g class="com.sun.star.drawing.ClosedBezierShape">
        <g id="id3">
         <rect class="BoundingBox" stroke="none" fill="none" x="9266" y="9405" width="28853" height="27242"/>
         <path fill="rgb(255,166,166)" stroke="none" d="M 24343,9443 C 22413,9591 20131,10230 18367,11112 14882,12861 12352,15811 11308,19345 10691,21434 10624,23676 11114,25878 11181,26178 11269,26527 11308,26650 11347,26777 11368,26887 11361,26897 11350,26904 10927,26887 10419,26855 9907,26820 9438,26795 9371,26795 9255,26795 9255,26795 9280,26925 9322,27158 9742,28382 9950,28876 10687,30626 11608,32058 12733,33212 14271,34782 15965,35768 17997,36279 19612,36685 21256,36748 23637,36494 25761,36269 29710,35905 33139,35621 33661,35578 34183,35535 34706,35491 34745,35268 34785,35045 34825,34821 35274,32252 35827,29850 36561,27285 37658,23451 38120,21056 38117,19194 38117,18340 38064,18047 37792,17479 37073,15966 35609,14135 34053,12801 31171,10328 27837,9178 24343,9443 Z"/>
        </g>
       </g>
       <g class="com.sun.star.drawing.ClosedBezierShape">
        <g id="id4">
         <rect class="BoundingBox" stroke="none" fill="none" x="18766" y="29895" width="2216" height="1748"/>
         <path fill="rgb(214,46,78)" stroke="none" d="M 20913,29995 C 20913,30153 20814,30496 20698,30732 20571,30997 20342,31208 20119,31272 19876,31339 19467,31300 19096,31173 18923,31113 18775,31071 18768,31078 18740,31106 19153,31385 19414,31508 19671,31632 19721,31642 19996,31642 20447,31642 20673,31498 20867,31078 20955,30887 20966,30820 20977,30379 20987,30041 20980,29896 20952,29896 20931,29896 20913,29942 20913,29995 Z"/>
        </g>
       </g>
       <g class="com.sun.star.drawing.ClosedBezierShape">
        <g id="id5">
         <rect class="BoundingBox" stroke="none" fill="none" x="0" y="0" width="42466" height="24806"/>
         <path fill="rgb(245,53,90)" stroke="none" d="M 21086,37 C 19636,277 18691,1036 18271,2306 18056,2951 18017,3241 18020,4204 18020,5117 18077,5639 18264,6401 18313,6603 18352,6775 18352,6782 18352,6793 18151,6592 17904,6338 16779,5170 15815,4638 14828,4641 14415,4641 14157,4705 13776,4895 13424,5071 12972,5477 12722,5844 12609,6013 12535,6091 12496,6080 12468,6070 12309,6024 12143,5975 11004,5639 9607,5463 8439,5502 5684,5601 3624,6705 2248,8818 1070,10631 928,13143 1846,16025 2188,17098 2897,18671 3475,19638 3563,19785 3652,19932 3740,20079 3691,20088 3641,20097 3592,20107 3387,20149 2816,20114 2565,20047 2290,19969 1973,19821 1694,19634 1200,19306 562,18537 251,17898 188,17768 124,17662 110,17662 64,17662 -3,18558 1,19197 1,20491 219,21320 689,21818 1048,22195 1719,22424 2452,22424 2918,22424 3232,22354 3602,22170 4160,21895 4583,21363 4770,20696 4812,20544 4879,20075 4929,19602 5112,17870 5338,16837 5797,15676 6788,13178 8665,11721 11254,11450 11833,11390 12835,11425 13321,11524 14831,11824 16094,12631 17050,13909 17332,14290 17685,14886 17844,15263 17918,15436 17989,15581 17999,15581 18013,15581 18105,15478 18207,15355 18479,15016 19026,14480 19428,14159 20476,13316 21619,12776 22850,12543 23333,12448 24430,12413 24938,12473 26132,12614 27289,13005 28210,13587 28845,13990 29307,14364 30327,15316 31477,16389 31875,16702 32687,17182 33488,17655 33988,18054 34500,18629 35382,19613 35848,20784 35696,21655 35618,22100 35470,22382 35135,22714 34803,23042 34719,23176 34719,23352 34719,23663 34987,23948 35512,24202 36006,24442 36588,24612 37382,24739 37922,24827 39033,24827 39425,24739 40240,24559 40536,24301 41012,23377 42166,21133 42716,17637 42353,14857 42095,12868 41443,11189 40360,9735 40024,9284 39093,8359 38687,8070 38345,7830 37661,7481 37297,7361 35110,6641 32517,7569 30069,9954 29589,10416 29565,10437 29582,10324 29695,9658 29741,8151 29678,7340 29508,5280 28912,3657 27871,2405 26824,1149 25376,404 23344,73 23071,29 22503,3 21994,0 21939,0 21884,0 21830,0 21508,2 21228,14 21086,37 Z"/>
        </g>
       </g>
       <g class="com.sun.star.drawing.ClosedBezierShape">
        <g id="id6">
         <rect class="BoundingBox" stroke="none" fill="none" x="31434" y="4457" width="6380" height="17298"/>
         <path fill="rgb(255,166,166)" stroke="none" d="M 34060,4588 C 33629,5308 33344,5841 33104,6359 32839,6941 32486,7770 32486,7809 32486,7820 32376,8169 32239,8585 32101,9001 31971,9432 31950,9538 31929,9643 31858,9968 31791,10261 31545,11347 31453,12187 31435,13450 31432,13986 31439,14533 31453,14670 31470,14805 31502,15115 31523,15358 31562,15785 31686,16650 31717,16695 31724,16710 31763,16886 31806,17090 31894,17528 32042,18085 32105,18233 32134,18290 32211,18498 32282,18692 32726,19913 33474,20985 34229,21486 34561,21708 34712,21754 35111,21754 35457,21754 35884,21486 36208,21063 36702,20424 37214,19168 37429,18075 37566,17387 37658,16840 37676,16593 37690,16448 37722,16082 37753,15782 37852,14794 37820,12416 37700,11619 37591,10920 37316,9615 37245,9478 37224,9442 37129,9164 37030,8853 36709,7862 36113,6733 35425,5809 35051,5308 34271,4458 34187,4458 34162,4458 34106,4518 34060,4588 Z"/>
        </g>
       </g>
       <g class="com.sun.star.drawing.ClosedBezierShape">
        <g id="id7">
         <rect class="BoundingBox" stroke="none" fill="none" x="11864" y="21467" width="2503" height="2374"/>
         <path fill="rgb(255,255,255)" stroke="none" d="M 12491,21941 C 13101,21410 13836,21313 14190,21718 14544,22123 14349,22838 13740,23369 13131,23899 12395,23995 12041,23590 11687,23185 11882,22471 12491,21941 Z"/>
        </g>
       </g>
       <g class="com.sun.star.drawing.ClosedBezierShape">
        <g id="id8">
         <rect class="BoundingBox" stroke="none" fill="none" x="11850" y="21453" width="2531" height="2402"/>
         <path fill="none" stroke="rgb(255,255,255)" stroke-width="28" stroke-linejoin="round" d="M 12491,21941 C 13101,21410 13836,21313 14190,21718 14544,22123 14349,22838 13740,23369 13131,23899 12395,23995 12041,23590 11687,23185 11882,22471 12491,21941 Z"/>
        </g>
       </g>
       <g class="com.sun.star.drawing.ClosedBezierShape">
        <g id="id9">
         <rect class="BoundingBox" stroke="none" fill="none" x="11565" y="20775" width="5294" height="5288"/>
         <path fill="rgb(51,116,216)" stroke="none" d="M 13559,20828 C 13443,20857 13206,20948 13030,21033 12494,21297 12092,21696 11831,22236 11626,22652 11566,22916 11566,23417 11566,23918 11626,24182 11831,24598 12092,25135 12490,25537 13030,25798 13446,26003 13711,26062 14212,26062 14713,26062 14977,26003 15394,25798 15933,25537 16332,25135 16593,24598 16798,24182 16858,23918 16858,23417 16858,22916 16798,22652 16593,22236 16332,21700 15933,21297 15394,21036 15221,20948 14974,20857 14847,20828 14554,20758 13848,20758 13559,20828 Z M 13771,21633 C 13961,21703 13997,21728 14078,21873 14145,21982 14166,22067 14162,22186 14152,22359 14011,22783 13961,22783 13944,22783 13930,22804 13930,22829 13930,22898 13591,23261 13411,23385 13164,23547 12822,23660 12607,23646 12296,23621 12081,23395 12088,23103 12099,22691 12240,22412 12635,22014 12741,21904 13122,21700 13347,21629 13464,21590 13658,21594 13771,21633 Z"/>
        </g>
       </g>
       <g class="com.sun.star.drawing.ClosedBezierShape">
        <g id="id10">
         <rect class="BoundingBox" stroke="none" fill="none" x="19765" y="20304" width="5102" height="4202"/>
         <path fill="rgb(255,255,255)" stroke="none" d="M 22316,20305 C 23762,20305 24866,21215 24866,22405 24866,23595 23762,24505 22316,24505 20870,24505 19766,23595 19766,22405 19766,21215 20870,20305 22316,20305 Z"/>
        </g>
       </g>
       <g class="com.sun.star.drawing.ClosedBezierShape">
        <g id="id11">
         <rect class="BoundingBox" stroke="none" fill="none" x="19751" y="20290" width="5130" height="4230"/>
         <path fill="none" stroke="rgb(255,255,255)" stroke-width="28" stroke-linejoin="round" d="M 22316,20305 C 23762,20305 24866,21215 24866,22405 24866,23595 23762,24505 22316,24505 20870,24505 19766,23595 19766,22405 19766,21215 20870,20305 22316,20305 Z"/>
        </g>
       </g>
       <g class="com.sun.star.drawing.ClosedBezierShape">
        <g id="id12">
         <rect class="BoundingBox" stroke="none" fill="none" x="19366" y="19905" width="6317" height="6324"/>
         <path fill="rgb(51,116,216)" stroke="none" d="M 21836,19946 C 20863,20169 19956,20902 19603,21749 19399,22235 19367,22418 19367,23071 19367,23614 19377,23720 19448,23953 19571,24359 19660,24546 19864,24856 20231,25413 20820,25858 21508,26101 21629,26144 21751,26186 21872,26228 22089,26228 22307,26228 22524,26228 22742,26228 22959,26228 23177,26228 23298,26186 23419,26144 23540,26101 24228,25858 24817,25413 25184,24856 25389,24546 25477,24359 25600,23953 25671,23720 25682,23614 25682,23071 25682,22528 25671,22422 25600,22189 25477,21784 25389,21597 25184,21287 24814,20726 24225,20281 23540,20045 23191,19925 23156,19918 22612,19908 22228,19900 21981,19915 21836,19946 Z M 22408,20691 C 22552,20754 22605,20807 22669,20924 22842,21269 22676,21851 22263,22337 22069,22566 21649,22877 21357,23011 21067,23141 20700,23187 20415,23120 20369,23113 20263,23032 20178,22947 20128,22895 20077,22842 20027,22789 20029,22674 20032,22559 20034,22443 20041,22129 20051,22080 20171,21848 20464,21266 21219,20694 21794,20613 21875,20603 21946,20592 21953,20585 21984,20557 22253,20617 22408,20691 Z"/>
        </g>
       </g>
       <g class="com.sun.star.drawing.ClosedBezierShape">
        <g id="id13">
         <rect class="BoundingBox" stroke="none" fill="none" x="31264" y="21404" width="12201" height="24637"/>
         <path fill="rgb(245,53,90)" stroke="none" d="M 35991,21424 C 35452,21516 34859,21890 34228,22550 32831,24000 32368,25460 32732,27252 32852,27838 33261,28850 33554,29281 33577,29316 33600,29351 33624,29386 33538,29481 33452,29575 33367,29669 32231,30932 31539,32427 31317,34110 31247,34650 31247,35759 31317,36309 31465,37470 31846,38761 32323,39703 33169,41389 34400,42349 36087,42635 36309,42674 36549,42705 36619,42705 36662,42705 36706,42705 36750,42705 36690,42739 36630,42774 36570,42808 36200,43023 35850,43513 35727,43993 35699,44106 35674,44332 35674,44494 35674,45344 36207,45894 37156,46021 38277,46173 39388,45362 40263,43746 40474,43354 40788,42674 40788,42603 40788,42575 40665,42674 40517,42815 39656,43637 38979,43933 38419,43735 38200,43658 37956,43503 37731,43294 37680,43248 37629,43203 37579,43157 37679,43095 37779,43032 37879,42970 38722,42441 39433,41700 40139,40624 40605,39911 40912,39213 41049,38543 41247,37569 41074,36472 40601,35685 40563,35624 40524,35560 40485,35497 40570,35440 40655,35384 40739,35327 41772,34636 42658,32928 43138,30713 43367,29640 43437,29108 43459,28272 43483,27252 43416,26705 43162,25933 42732,24610 41730,23537 40442,23022 40033,22857 39747,22790 39349,22761 38986,22733 38807,22656 38337,22313 37519,21721 37216,21551 36792,21453 36588,21403 36192,21389 35991,21424 Z"/>
        </g>
       </g>
      </g>
     </g>
    </g>
   </g>
  </g>
 </g>
</svg>