<?xml version="1.0" encoding="UTF-8"?>
<!DOCTYPE svg PUBLIC "-//W3C//DTD SVG 1.1//EN" "http://www.w3.org/Graphics/SVG/1.1/DTD/svg11.dtd">
<svg version="1.2" width="1535.55mm" height="725.58mm" viewBox="0 0 153555 72558" preserveAspectRatio="xMidYMid" fill-rule="evenodd" stroke-width="28.222" stroke-linejoin="round" xmlns="http://www.w3.org/2000/svg" xmlns:ooo="http://xml.openoffice.org/svg/export" xmlns:xlink="http://www.w3.org/1999/xlink" xmlns:presentation="http://sun.com/xmlns/staroffice/presentation" xmlns:smil="http://www.w3.org/2001/SMIL20/" xmlns:anim="urn:oasis:names:tc:opendocument:xmlns:animation:1.0" xml:space="preserve">
 <defs class="ClipPathGroup">
  <clipPath id="presentation_clip_path" clipPathUnits="userSpaceOnUse">
   <rect x="0" y="0" width="153555" height="72558"/>
  </clipPath>
  <clipPath id="presentation_clip_path_shrink" clipPathUnits="userSpaceOnUse">
   <rect x="153" y="72" width="153248" height="72413"/>
  </clipPath>
 </defs>
 <defs class="TextShapeIndex">
  <g ooo:slide="id1" ooo:id-list="id3 id4 id5 id6 id7 id8 id9 id10 id11 id12 id13 id14 id15 id16 id17 id18 id19 id20"/>
 </defs>
 <defs class="EmbeddedBulletChars">
  <g id="bullet-char-template-57356" transform="scale(0.00048828125,-0.00048828125)">
   <path d="M 580,1141 L 1163,571 580,0 -4,571 580,1141 Z"/>
  </g>
  <g id="bullet-char-template-57354" transform="scale(0.00048828125,-0.00048828125)">
   <path d="M 8,1128 L 1137,1128 1137,0 8,0 8,1128 Z"/>
  </g>
  <g id="bullet-char-template-10146" transform="scale(0.00048828125,-0.00048828125)">
   <path d="M 174,0 L 602,739 174,1481 1456,739 174,0 Z M 1358,739 L 309,1346 659,739 1358,739 Z"/>
  </g>
  <g id="bullet-char-template-10132" transform="scale(0.00048828125,-0.00048828125)">
   <path d="M 2015,739 L 1276,0 717,0 1260,543 174,543 174,936 1260,936 717,1481 1274,1481 2015,739 Z"/>
  </g>
  <g id="bullet-char-template-10007" transform="scale(0.00048828125,-0.00048828125)">
   <path d="M 0,-2 C -7,14 -16,27 -25,37 L 356,567 C 262,823 215,952 215,954 215,979 228,992 255,992 264,992 276,990 289,987 310,991 331,999 354,1012 L 381,999 492,748 772,1049 836,1024 860,1049 C 881,1039 901,1025 922,1006 886,937 835,863 770,784 769,783 710,716 594,584 L 774,223 C 774,196 753,168 711,139 L 727,119 C 717,90 699,76 672,76 641,76 570,178 457,381 L 164,-76 C 142,-110 111,-127 72,-127 30,-127 9,-110 8,-76 1,-67 -2,-52 -2,-32 -2,-23 -1,-13 0,-2 Z"/>
  </g>
  <g id="bullet-char-template-10004" transform="scale(0.00048828125,-0.00048828125)">
   <path d="M 285,-33 C 182,-33 111,30 74,156 52,228 41,333 41,471 41,549 55,616 82,672 116,743 169,778 240,778 293,778 328,747 346,684 L 369,508 C 377,444 397,411 428,410 L 1163,1116 C 1174,1127 1196,1133 1229,1133 1271,1133 1292,1118 1292,1087 L 1292,965 C 1292,929 1282,901 1262,881 L 442,47 C 390,-6 338,-33 285,-33 Z"/>
  </g>
  <g id="bullet-char-template-9679" transform="scale(0.00048828125,-0.00048828125)">
   <path d="M 813,0 C 632,0 489,54 383,161 276,268 223,411 223,592 223,773 276,916 383,1023 489,1130 632,1184 813,1184 992,1184 1136,1130 1245,1023 1353,916 1407,772 1407,592 1407,412 1353,268 1245,161 1136,54 992,0 813,0 Z"/>
  </g>
  <g id="bullet-char-template-8226" transform="scale(0.00048828125,-0.00048828125)">
   <path d="M 346,457 C 273,457 209,483 155,535 101,586 74,649 74,723 74,796 101,859 155,911 209,963 273,989 346,989 419,989 480,963 531,910 582,859 608,796 608,723 608,648 583,586 532,535 482,483 420,457 346,457 Z"/>
  </g>
  <g id="bullet-char-template-8211" transform="scale(0.00048828125,-0.00048828125)">
   <path d="M -4,459 L 1135,459 1135,606 -4,606 -4,459 Z"/>
  </g>
  <g id="bullet-char-template-61548" transform="scale(0.00048828125,-0.00048828125)">
   <path d="M 173,740 C 173,903 231,1043 346,1159 462,1274 601,1332 765,1332 928,1332 1067,1274 1183,1159 1299,1043 1357,903 1357,740 1357,577 1299,437 1183,322 1067,206 928,148 765,148 601,148 462,206 346,322 231,437 173,577 173,740 Z"/>
  </g>
 </defs>
 <defs class="TextEmbeddedBitmaps"/>
 <g>
  <g id="id2" class="Master_Slide">
   <g id="bg-id2" class="Background"/>
   <g id="bo-id2" class="BackgroundObjects"/>
  </g>
 </g>
 <g class="SlideGroup">
  <g>
   <g id="container-id1">
    <g id="id1" class="Slide" clip-path="url(#presentation_clip_path)">
     <g class="Page">
      <g class="com.sun.star.drawing.ClosedBezierShape">
       <g id="id3">
        <rect class="BoundingBox" stroke="none" fill="none" x="86925" y="52807" width="7436" height="17832"/>
        <path fill="rgb(228,148,148)" stroke="none" d="M 90150,52855 C 89632,52972 89092,53236 88580,53628 88284,53853 87695,54446 87473,54739 87268,55011 87053,55448 86975,55744 86908,56012 86908,56686 86975,57014 87063,57434 87279,58013 87561,58584 87963,59399 88252,59886 89819,62359 91822,65516 93135,67904 94158,70261 94341,70684 94348,70695 94359,70561 94380,70254 93495,56009 93378,54827 93329,54316 93191,54051 92764,53628 92415,53278 92045,53056 91561,52904 91233,52799 90510,52774 90150,52855 Z"/>
       </g>
      </g>
      <g class="com.sun.star.drawing.ClosedBezierShape">
       <g id="id4">
        <rect class="BoundingBox" stroke="none" fill="none" x="74015" y="49936" width="6347" height="20899"/>
        <path fill="rgb(228,148,148)" stroke="none" d="M 75372,49956 C 74846,50027 74416,50291 74232,50655 73978,51163 73947,52210 74141,53706 74388,55622 75234,59608 75890,61926 76751,64984 78042,68223 79284,70445 79356,70574 79428,70704 79499,70833 79502,70645 79504,70457 79506,70269 79566,65732 79683,63524 80046,59774 80332,56821 80381,56091 80353,55223 80314,54147 80155,53456 79764,52665 79037,51198 77824,50231 76398,49984 76109,49935 75629,49921 75372,49956 Z"/>
       </g>
      </g>
      <g class="com.sun.star.drawing.ClosedBezierShape">
       <g id="id5">
        <rect class="BoundingBox" stroke="none" fill="none" x="96460" y="34257" width="25505" height="32257"/>
        <path fill="rgb(245,53,90)" stroke="none" d="M 107802,34267 C 107724,34274 107488,34299 107273,34317 105678,34472 103664,35061 102119,35820 99762,36980 97850,38804 96817,40875 96630,41249 96460,41658 96460,41732 96460,41767 96651,41824 97141,41930 97512,42011 97843,42078 97875,42078 97903,42078 98027,41954 98147,41803 99170,40508 100800,39802 103004,39693 103466,39672 104394,39718 104669,39778 104707,39786 104744,39794 104782,39802 104697,39876 104613,39950 104528,40025 103745,40720 103057,41739 102757,42656 102563,43260 102514,43595 102514,44318 102510,44879 102525,45055 102592,45387 102973,47274 104010,48590 105633,49232 105777,49289 106028,49366 106190,49401 106419,49454 106476,49479 106458,49521 106366,49747 106137,50506 106038,50904 105802,51860 105703,52658 105703,53582 105703,54534 105820,55310 106077,56058 106684,57818 108303,59585 110183,60545 110660,60785 111316,61056 111605,61127 111697,61151 111771,61180 111771,61194 111771,61204 111630,61261 111457,61314 110589,61592 109947,62185 109679,62958 109591,63208 109569,63332 109555,63667 109538,64168 109580,64390 109764,64760 109926,65085 110317,65522 110663,65769 110974,65991 111556,66260 111954,66362 112974,66626 114004,66542 115006,66111 115323,65977 115941,65586 116163,65381 116210,65338 116257,65295 116304,65251 116239,65258 116175,65265 116110,65272 115616,65321 114448,65332 114113,65289 113418,65205 112871,64986 112614,64697 112371,64418 112360,64143 112586,63868 112879,63511 113383,63317 114311,63208 115165,63106 115736,62749 116025,62139 116255,61656 116304,61053 116184,60217 116110,59698 116053,59772 116745,59493 118382,58834 119271,58118 119786,57046 120428,55709 120329,53589 119549,51934 119359,51525 119119,51130 118907,50869 118867,50819 118828,50770 118788,50721 118841,50644 118893,50568 118946,50492 120199,48699 121282,46452 121701,44770 122259,42526 121934,40889 120664,39563 120237,39122 119962,38913 119479,38674 118604,38236 117669,38130 116579,38342 116184,38416 115556,38614 115323,38734 115249,38769 115183,38797 115179,38790 115176,38783 115126,38659 115069,38515 114575,37210 113605,36024 112434,35298 111640,34804 110737,34490 109672,34331 109333,34282 108091,34239 107802,34267 Z"/>
       </g>
      </g>
      <g class="com.sun.star.drawing.ClosedBezierShape">
       <g id="id6">
        <rect class="BoundingBox" stroke="none" fill="none" x="59960" y="10058" width="28854" height="27244"/>
        <path fill="rgb(255,166,166)" stroke="none" d="M 75037,10096 C 73107,10244 70825,10883 69061,11765 65576,13514 63046,16464 62002,19998 61385,22087 61318,24329 61808,26531 61875,26831 61963,27180 62002,27303 62041,27430 62062,27540 62055,27550 62044,27557 61621,27540 61113,27508 60601,27473 60132,27448 60065,27448 59949,27448 59949,27448 59974,27578 60016,27811 60436,29035 60644,29529 61381,31279 62302,32711 63427,33865 64965,35435 66659,36423 68691,36934 70306,37340 71950,37403 74331,37149 76455,36924 80406,36560 83835,36274 84357,36231 84879,36188 85402,36144 85441,35921 85481,35698 85521,35474 85970,32905 86523,30503 87257,27938 88354,24104 88816,21709 88813,19847 88813,18993 88760,18700 88488,18132 87769,16619 86305,14788 84749,13454 81867,10981 78533,9831 75037,10096 Z"/>
       </g>
      </g>
      <g class="com.sun.star.drawing.ClosedBezierShape">
       <g id="id7">
        <rect class="BoundingBox" stroke="none" fill="none" x="82659" y="52736" width="5724" height="19824"/>
        <path fill="rgb(255,166,166)" stroke="none" d="M 85564,52750 C 84230,52849 83250,53561 82865,54708 82689,55237 82643,55643 82664,56517 82682,57170 82706,57428 82844,58373 83669,64042 84766,68110 86290,71122 86608,71754 87063,72540 87119,72558 87151,72569 87366,69757 87980,61262 88382,55738 88407,55318 88368,54965 88294,54313 88072,53822 87663,53409 87134,52880 86495,52679 85564,52750 Z"/>
       </g>
      </g>
      <g class="com.sun.star.drawing.ClosedBezierShape">
       <g id="id8">
        <rect class="BoundingBox" stroke="none" fill="none" x="92460" y="54658" width="6464" height="17781"/>
        <path fill="rgb(255,166,166)" stroke="none" d="M 95921,54682 C 95251,54763 94418,55098 93892,55496 93000,56170 92464,57116 92460,58022 92460,58629 92637,59074 93515,60658 94026,61578 95050,63617 95561,64732 96344,66436 97579,69272 98531,71555 98653,71849 98776,72143 98898,72437 98904,69926 98910,67416 98916,64905 98927,60767 98923,57239 98909,57070 98877,56671 98771,56290 98591,55913 98404,55528 97995,55101 97646,54932 97191,54710 96499,54607 95921,54682 Z"/>
       </g>
      </g>
      <g class="com.sun.star.drawing.ClosedBezierShape">
       <g id="id9">
        <rect class="BoundingBox" stroke="none" fill="none" x="69460" y="30549" width="2217" height="1748"/>
        <path fill="rgb(214,46,78)" stroke="none" d="M 71607,30648 C 71607,30806 71508,31149 71392,31385 71265,31650 71036,31861 70813,31925 70570,31992 70161,31953 69790,31826 69617,31766 69469,31724 69462,31731 69434,31759 69847,32038 70108,32161 70365,32285 70415,32295 70690,32295 71141,32295 71367,32151 71561,31731 71649,31540 71660,31473 71671,31032 71681,30694 71674,30549 71646,30549 71625,30549 71607,30595 71607,30648 Z"/>
       </g>
      </g>
      <g class="Group">
       <g class="com.sun.star.drawing.ClosedBezierShape">
        <g id="id10">
         <rect class="BoundingBox" stroke="none" fill="none" x="72318" y="28586" width="26944" height="29653"/>
         <path fill="rgb(255,166,166)" stroke="none" d="M 80140,28604 C 79455,28661 78446,28872 77741,29109 74506,30188 72424,32679 72322,35600 72301,36125 72329,36418 73045,43527 73454,47584 73814,51020 73842,51164 74216,52956 75000,54532 76061,55629 77010,56610 78390,57436 79681,57799 80436,58011 79938,57993 88977,58123 93577,58190 97672,58243 98078,58236 98325,58234 98572,58232 98819,58229 98892,55672 98965,53114 99038,50557 99158,46338 99256,42669 99256,42408 99258,42249 99259,42090 99260,41932 96906,41745 94552,41558 92197,41371 88310,41064 85124,40807 85117,40800 85110,40793 85184,40196 85283,39473 85629,36969 85900,34721 86070,32954 86123,32393 86147,31892 86151,31243 86154,30354 86151,30322 86073,30178 85682,29440 84126,28798 82295,28615 81960,28583 80503,28576 80140,28604 Z"/>
        </g>
       </g>
       <g class="Group">
        <g class="com.sun.star.drawing.ClosedBezierShape">
         <g id="id11">
          <rect class="BoundingBox" stroke="none" fill="none" x="93320" y="43383" width="2283" height="7032"/>
          <path fill="rgb(255,255,56)" stroke="none" d="M 93976,43386 C 93845,43404 93687,43471 93616,43542 93553,43605 93404,43863 93387,43940 93383,43958 93362,44043 93341,44124 93299,44307 93323,44868 93390,45104 93461,45369 93648,45736 93792,45895 93930,46039 94159,46180 94265,46180 94300,46180 94329,46184 94329,46188 94329,46195 94304,46286 94276,46392 94202,46664 94205,46674 94339,46674 94378,46674 94417,46674 94456,46674 94424,46770 94392,46867 94360,46964 94237,47345 94223,47800 94322,48022 94413,48227 94569,48410 94794,48590 95260,48960 95528,49370 95528,49715 95528,50019 95292,50347 95080,50343 94837,50336 94643,49818 94826,49655 94886,49599 94914,49595 94999,49627 95115,49669 95158,49648 95101,49578 95038,49507 94837,49521 94759,49606 94664,49705 94632,49927 94692,50072 94720,50132 94791,50237 94851,50297 94939,50393 94981,50414 95108,50414 95235,50414 95274,50393 95383,50280 95630,50022 95669,49638 95493,49260 95387,49034 95179,48798 94759,48442 94639,48339 94494,48181 94442,48089 94357,47944 94346,47891 94346,47592 94346,47338 94367,47196 94427,47009 94544,46653 94526,46667 94791,46706 94914,46724 95020,46733 95027,46727 95031,46723 94964,46565 94875,46374 94823,46260 94770,46146 94717,46032 94745,45995 94773,45959 94801,45923 95193,45387 95048,44191 94526,43662 94339,43471 94128,43365 93976,43386 Z"/>
         </g>
        </g>
        <g class="com.sun.star.drawing.ClosedBezierShape">
         <g id="id12">
          <rect class="BoundingBox" stroke="none" fill="none" x="95853" y="46179" width="1689" height="7460"/>
          <path fill="rgb(52,101,164)" stroke="none" d="M 96537,46240 C 96481,46269 96396,46329 96354,46371 96244,46477 96029,46822 96001,46942 95987,46999 95969,47059 95958,47080 95934,47119 95923,47165 95899,47380 95888,47468 95874,47581 95863,47637 95807,47962 96015,48632 96234,48826 96294,48879 96339,48932 96339,48946 96339,48957 96266,49080 96174,49218 96041,49419 96018,49472 96061,49500 96089,49518 96138,49532 96170,49532 96318,49532 96332,49564 96244,49736 96018,50202 96001,50742 96198,51172 96262,51306 96375,51525 96449,51652 96706,52093 96826,52470 96851,52908 96879,53394 96717,53637 96428,53542 96170,53461 95966,53109 95994,52806 96008,52689 96001,52636 95973,52647 95951,52654 95930,52746 95923,52851 95909,53084 96036,53376 96223,53531 96325,53619 96378,53637 96526,53637 96685,53637 96713,53623 96802,53517 96922,53373 96957,53183 96929,52806 96907,52559 96738,51948 96657,51842 96611,51783 96438,51461 96322,51225 96064,50703 96071,50304 96336,49740 96362,49684 96388,49629 96414,49574 96458,49585 96501,49597 96544,49609 96615,49627 96720,49648 96773,49655 96807,49661 96842,49667 96876,49673 96866,49593 96857,49513 96847,49433 96837,49303 96809,49161 96795,49116 96749,48992 96752,48989 96904,48900 96982,48858 97087,48763 97140,48692 97197,48622 97246,48555 97257,48544 97274,48530 97313,48449 97433,48174 97624,47740 97550,46812 97299,46459 97116,46202 96780,46106 96537,46240 Z"/>
         </g>
        </g>
        <g class="com.sun.star.drawing.ClosedBezierShape">
         <g id="id13">
          <rect class="BoundingBox" stroke="none" fill="none" x="92360" y="46792" width="3268" height="5709"/>
          <path fill="rgb(52,101,164)" stroke="none" d="M 92826,46801 C 92709,46830 92480,47073 92431,47225 92403,47299 92374,47496 92364,47662 92328,48209 92537,48805 92896,49193 93083,49394 93320,49528 93493,49532 93526,49532 93559,49532 93591,49532 93588,49661 93585,49790 93581,49920 93574,50132 93574,50308 93581,50308 93595,50308 93810,50153 93863,50103 93905,50064 93927,50072 93997,50135 94166,50294 94188,50400 94184,51038 94181,51698 94216,51899 94364,52160 94565,52502 94851,52583 95267,52418 95549,52305 95645,52149 95623,51825 95616,51698 95581,51536 95546,51461 95422,51197 95165,51038 94967,51102 94840,51140 94886,51179 95055,51176 95204,51172 95228,51186 95338,51310 95489,51486 95574,51754 95542,51962 95510,52181 95380,52308 95126,52375 94748,52474 94554,52375 94378,51994 94276,51775 94276,51765 94272,51084 94269,50357 94262,50322 94089,50114 94061,50080 94033,50046 94004,50012 94031,49989 94058,49967 94085,49945 94131,49906 94198,49856 94237,49832 94297,49786 94290,49772 94135,49549 94080,49471 94025,49394 93969,49317 93996,49255 94023,49194 94050,49133 94124,48978 94135,48897 94135,48579 94131,48156 94068,47877 93895,47532 93771,47278 93482,46964 93295,46875 93165,46812 92939,46777 92826,46801 Z"/>
         </g>
        </g>
       </g>
      </g>
      <g class="com.sun.star.drawing.ClosedBezierShape">
       <g id="id14">
        <rect class="BoundingBox" stroke="none" fill="none" x="50694" y="652" width="42467" height="24807"/>
        <path fill="rgb(245,53,90)" stroke="none" d="M 71780,690 C 70330,930 69385,1689 68965,2959 68750,3604 68711,3894 68714,4857 68714,5770 68771,6292 68958,7054 69007,7256 69046,7428 69046,7435 69046,7446 68845,7245 68598,6991 67473,5823 66509,5291 65522,5294 65109,5294 64851,5358 64470,5548 64118,5724 63666,6130 63416,6497 63303,6666 63229,6744 63190,6733 63162,6723 63003,6677 62837,6628 61698,6292 60301,6116 59133,6155 56378,6254 54318,7358 52942,9471 51764,11284 51622,13796 52540,16678 52882,17751 53591,19324 54169,20291 54257,20438 54346,20585 54434,20732 54385,20741 54335,20750 54286,20760 54081,20802 53510,20767 53259,20700 52984,20622 52667,20474 52388,20287 51894,19959 51256,19190 50945,18551 50882,18421 50818,18315 50804,18315 50758,18315 50691,19211 50695,19850 50695,21144 50913,21973 51383,22471 51742,22848 52413,23077 53146,23077 53612,23077 53926,23007 54296,22823 54854,22548 55277,22016 55464,21349 55506,21197 55573,20728 55623,20255 55806,18523 56032,17490 56491,16329 57482,13831 59359,12374 61948,12103 62527,12043 63529,12078 64015,12177 65525,12477 66788,13284 67744,14562 68026,14943 68379,15539 68538,15916 68612,16089 68683,16234 68693,16234 68707,16234 68799,16131 68901,16008 69173,15669 69720,15133 70122,14812 71170,13969 72313,13429 73544,13196 74027,13101 75124,13066 75632,13126 76828,13267 77985,13658 78906,14240 79541,14643 80003,15017 81023,15969 82173,17042 82571,17355 83383,17835 84184,18308 84684,18707 85196,19282 86078,20266 86544,21437 86392,22308 86314,22753 86166,23035 85831,23367 85499,23695 85415,23829 85415,24005 85415,24316 85683,24601 86208,24855 86702,25095 87284,25265 88078,25392 88618,25480 89729,25480 90121,25392 90936,25212 91232,24954 91708,24030 92862,21786 93412,18290 93049,15510 92791,13521 92139,11842 91056,10388 90720,9937 89789,9012 89383,8723 89041,8483 88357,8134 87993,8014 85806,7294 83213,8222 80765,10607 80285,11069 80261,11090 80278,10977 80391,10311 80437,8804 80374,7993 80204,5933 79608,4310 78567,3058 77520,1802 76070,1057 74038,726 73558,648 72164,627 71780,690 Z"/>
       </g>
      </g>
      <g class="com.sun.star.drawing.ClosedBezierShape">
       <g id="id15">
        <rect class="BoundingBox" stroke="none" fill="none" x="82129" y="5110" width="6380" height="17298"/>
        <path fill="rgb(255,166,166)" stroke="none" d="M 84756,5241 C 84325,5961 84040,6494 83800,7012 83535,7594 83182,8423 83182,8462 83182,8473 83072,8822 82935,9238 82797,9654 82667,10085 82646,10191 82625,10296 82554,10621 82487,10914 82241,12000 82149,12840 82131,14103 82128,14639 82135,15186 82149,15323 82166,15458 82198,15768 82219,16011 82258,16438 82382,17303 82413,17348 82420,17363 82459,17539 82502,17743 82590,18181 82738,18738 82801,18886 82830,18943 82907,19151 82978,19345 83422,20566 84170,21638 84925,22139 85257,22361 85408,22407 85807,22407 86153,22407 86580,22139 86904,21716 87398,21077 87910,19821 88125,18728 88262,18040 88354,17493 88372,17246 88386,17101 88418,16735 88449,16435 88548,15447 88516,13069 88396,12272 88287,11573 88012,10268 87941,10131 87920,10095 87825,9817 87726,9506 87405,8515 86809,7386 86121,6462 85747,5961 84967,5111 84883,5111 84858,5111 84802,5171 84756,5241 Z"/>
       </g>
      </g>
      <g class="Group">
       <g class="com.sun.star.drawing.CustomShape">
        <g id="id16">
         <rect class="BoundingBox" stroke="none" fill="none" x="62558" y="22120" width="2504" height="2375"/>
         <path fill="rgb(255,255,255)" stroke="none" d="M 63185,22594 C 63795,22063 64530,21966 64884,22371 65238,22776 65043,23491 64434,24022 63825,24552 63089,24648 62735,24243 62381,23838 62576,23124 63185,22594 Z"/>
         <path fill="none" stroke="rgb(255,255,255)" d="M 63185,22594 C 63795,22063 64530,21966 64884,22371 65238,22776 65043,23491 64434,24022 63825,24552 63089,24648 62735,24243 62381,23838 62576,23124 63185,22594 Z"/>
        </g>
       </g>
       <g class="com.sun.star.drawing.ClosedBezierShape">
        <g id="id17">
         <rect class="BoundingBox" stroke="none" fill="none" x="62259" y="21428" width="5294" height="5289"/>
         <path fill="rgb(51,116,216)" stroke="none" d="M 64253,21481 C 64137,21510 63900,21601 63724,21686 63188,21950 62786,22349 62525,22889 62320,23305 62260,23569 62260,24070 62260,24571 62320,24835 62525,25251 62786,25788 63184,26190 63724,26451 64140,26656 64405,26715 64906,26715 65407,26715 65671,26656 66088,26451 66627,26190 67026,25788 67287,25251 67492,24835 67552,24571 67552,24070 67552,23569 67492,23305 67287,22889 67026,22353 66627,21950 66088,21689 65915,21601 65668,21510 65541,21481 65248,21411 64542,21411 64253,21481 Z M 64465,22286 C 64655,22356 64691,22381 64772,22526 64839,22635 64860,22720 64856,22839 64846,23012 64705,23436 64655,23436 64638,23436 64624,23457 64624,23482 64624,23551 64285,23914 64105,24038 63858,24200 63516,24313 63301,24299 62990,24274 62775,24048 62782,23756 62793,23344 62934,23065 63329,22667 63435,22557 63816,22353 64041,22282 64158,22243 64352,22247 64465,22286 Z"/>
        </g>
       </g>
      </g>
      <g class="Group">
       <g class="com.sun.star.drawing.CustomShape">
        <g id="id18">
         <rect class="BoundingBox" stroke="none" fill="none" x="70459" y="20957" width="5103" height="4203"/>
         <path fill="rgb(255,255,255)" stroke="none" d="M 73010,20958 C 74456,20958 75560,21868 75560,23058 75560,24248 74456,25158 73010,25158 71564,25158 70460,24248 70460,23058 70460,21868 71564,20958 73010,20958 Z"/>
         <path fill="none" stroke="rgb(255,255,255)" d="M 73010,20958 C 74456,20958 75560,21868 75560,23058 75560,24248 74456,25158 73010,25158 71564,25158 70460,24248 70460,23058 70460,21868 71564,20958 73010,20958 Z"/>
        </g>
       </g>
       <g class="com.sun.star.drawing.ClosedBezierShape">
        <g id="id19">
         <rect class="BoundingBox" stroke="none" fill="none" x="70060" y="20558" width="6317" height="6325"/>
         <path fill="rgb(51,116,216)" stroke="none" d="M 72530,20599 C 71557,20822 70650,21555 70297,22402 70093,22888 70061,23071 70061,23724 70061,24267 70071,24373 70142,24606 70265,25012 70354,25199 70558,25509 70925,26066 71514,26511 72202,26754 72323,26797 72445,26839 72566,26881 72783,26881 73001,26881 73218,26881 73436,26881 73653,26881 73871,26881 73992,26839 74113,26797 74234,26754 74922,26511 75511,26066 75878,25509 76083,25199 76171,25012 76294,24606 76365,24373 76376,24267 76376,23724 76376,23181 76365,23075 76294,22842 76171,22437 76083,22250 75878,21940 75508,21379 74919,20934 74234,20698 73885,20578 73850,20571 73306,20561 72922,20553 72675,20568 72530,20599 Z M 73102,21344 C 73246,21407 73299,21460 73363,21577 73536,21922 73370,22504 72957,22990 72763,23219 72343,23530 72051,23664 71761,23794 71394,23840 71109,23773 71063,23766 70957,23685 70872,23600 70822,23548 70771,23495 70721,23442 70723,23327 70726,23212 70728,23096 70735,22782 70745,22733 70865,22501 71158,21919 71913,21347 72488,21266 72569,21256 72640,21245 72647,21238 72678,21210 72947,21270 73102,21344 Z"/>
        </g>
       </g>
      </g>
      <g class="com.sun.star.drawing.ClosedBezierShape">
       <g id="id20">
        <rect class="BoundingBox" stroke="none" fill="none" x="81960" y="22057" width="12202" height="24639"/>
        <path fill="rgb(245,53,90)" stroke="none" d="M 86687,22077 C 86148,22169 85555,22543 84924,23203 83527,24653 83064,26113 83428,27905 83548,28491 83957,29503 84250,29934 84273,29969 84296,30004 84320,30039 84234,30134 84148,30228 84063,30322 82927,31585 82235,33080 82013,34763 81943,35303 81943,36414 82013,36964 82161,38125 82542,39416 83019,40358 83865,42044 85096,43004 86783,43290 87005,43329 87245,43360 87315,43360 87358,43360 87402,43360 87446,43360 87386,43394 87326,43429 87266,43463 86896,43678 86546,44168 86423,44648 86395,44761 86370,44987 86370,45149 86370,45999 86903,46549 87852,46676 88973,46828 90084,46017 90959,44401 91170,44009 91484,43329 91484,43258 91484,43230 91361,43329 91213,43470 90352,44292 89675,44588 89115,44390 88896,44313 88652,44158 88427,43949 88376,43903 88325,43858 88275,43812 88375,43750 88475,43687 88575,43625 89418,43096 90129,42355 90835,41279 91301,40566 91608,39868 91745,39198 91943,38224 91770,37127 91297,36340 91259,36277 91220,36213 91181,36150 91266,36093 91351,36037 91435,35980 92468,35289 93354,33581 93834,31366 94063,30293 94133,29761 94155,28925 94179,27905 94112,27358 93858,26586 93428,25263 92426,24190 91138,23675 90729,23510 90443,23443 90045,23414 89682,23386 89503,23309 89033,22966 88215,22374 87912,22204 87488,22106 87284,22056 86888,22042 86687,22077 Z"/>
       </g>
      </g>
     </g>
    </g>
   </g>
  </g>
 </g>
</svg>