<?xml version="1.0" encoding="UTF-8"?>
<!DOCTYPE svg PUBLIC "-//W3C//DTD SVG 1.1//EN" "http://www.w3.org/Graphics/SVG/1.1/DTD/svg11.dtd">
<svg version="1.2" width="712.7mm" height="719.1mm" viewBox="0 0 71270 71910" preserveAspectRatio="xMidYMid" fill-rule="evenodd" stroke-width="28.222" stroke-linejoin="round" xmlns="http://www.w3.org/2000/svg" xmlns:ooo="http://xml.openoffice.org/svg/export" xmlns:xlink="http://www.w3.org/1999/xlink" xmlns:presentation="http://sun.com/xmlns/staroffice/presentation" xmlns:smil="http://www.w3.org/2001/SMIL20/" xmlns:anim="urn:oasis:names:tc:opendocument:xmlns:animation:1.0" xml:space="preserve">
 <defs class="ClipPathGroup">
  <clipPath id="presentation_clip_path" clipPathUnits="userSpaceOnUse">
   <rect x="0" y="0" width="71270" height="71910"/>
  </clipPath>
  <clipPath id="presentation_clip_path_shrink" clipPathUnits="userSpaceOnUse">
   <rect x="71" y="71" width="71128" height="71767"/>
  </clipPath>
 </defs>
 <defs class="TextShapeIndex">
  <g ooo:slide="id1" ooo:id-list="id3 id4 id5 id6 id7 id8 id9 id10 id11 id12 id13 id14 id15 id16 id17 id18 id19 id20 id21 id22"/>
 </defs>
 <defs class="EmbeddedBulletChars">
  <g id="bullet-char-template-57356" transform="scale(0.00048828125,-0.00048828125)">
   <path d="M 580,1141 L 1163,571 580,0 -4,571 580,1141 Z"/>
  </g>
  <g id="bullet-char-template-57354" transform="scale(0.00048828125,-0.00048828125)">
   <path d="M 8,1128 L 1137,1128 1137,0 8,0 8,1128 Z"/>
  </g>
  <g id="bullet-char-template-10146" transform="scale(0.00048828125,-0.00048828125)">
   <path d="M 174,0 L 602,739 174,1481 1456,739 174,0 Z M 1358,739 L 309,1346 659,739 1358,739 Z"/>
  </g>
  <g id="bullet-char-template-10132" transform="scale(0.00048828125,-0.00048828125)">
   <path d="M 2015,739 L 1276,0 717,0 1260,543 174,543 174,936 1260,936 717,1481 1274,1481 2015,739 Z"/>
  </g>
  <g id="bullet-char-template-10007" transform="scale(0.00048828125,-0.00048828125)">
   <path d="M 0,-2 C -7,14 -16,27 -25,37 L 356,567 C 262,823 215,952 215,954 215,979 228,992 255,992 264,992 276,990 289,987 310,991 331,999 354,1012 L 381,999 492,748 772,1049 836,1024 860,1049 C 881,1039 901,1025 922,1006 886,937 835,863 770,784 769,783 710,716 594,584 L 774,223 C 774,196 753,168 711,139 L 727,119 C 717,90 699,76 672,76 641,76 570,178 457,381 L 164,-76 C 142,-110 111,-127 72,-127 30,-127 9,-110 8,-76 1,-67 -2,-52 -2,-32 -2,-23 -1,-13 0,-2 Z"/>
  </g>
  <g id="bullet-char-template-10004" transform="scale(0.00048828125,-0.00048828125)">
   <path d="M 285,-33 C 182,-33 111,30 74,156 52,228 41,333 41,471 41,549 55,616 82,672 116,743 169,778 240,778 293,778 328,747 346,684 L 369,508 C 377,444 397,411 428,410 L 1163,1116 C 1174,1127 1196,1133 1229,1133 1271,1133 1292,1118 1292,1087 L 1292,965 C 1292,929 1282,901 1262,881 L 442,47 C 390,-6 338,-33 285,-33 Z"/>
  </g>
  <g id="bullet-char-template-9679" transform="scale(0.00048828125,-0.00048828125)">
   <path d="M 813,0 C 632,0 489,54 383,161 276,268 223,411 223,592 223,773 276,916 383,1023 489,1130 632,1184 813,1184 992,1184 1136,1130 1245,1023 1353,916 1407,772 1407,592 1407,412 1353,268 1245,161 1136,54 992,0 813,0 Z"/>
  </g>
  <g id="bullet-char-template-8226" transform="scale(0.00048828125,-0.00048828125)">
   <path d="M 346,457 C 273,457 209,483 155,535 101,586 74,649 74,723 74,796 101,859 155,911 209,963 273,989 346,989 419,989 480,963 531,910 582,859 608,796 608,723 608,648 583,586 532,535 482,483 420,457 346,457 Z"/>
  </g>
  <g id="bullet-char-template-8211" transform="scale(0.00048828125,-0.00048828125)">
   <path d="M -4,459 L 1135,459 1135,606 -4,606 -4,459 Z"/>
  </g>
  <g id="bullet-char-template-61548" transform="scale(0.00048828125,-0.00048828125)">
   <path d="M 173,740 C 173,903 231,1043 346,1159 462,1274 601,1332 765,1332 928,1332 1067,1274 1183,1159 1299,1043 1357,903 1357,740 1357,577 1299,437 1183,322 1067,206 928,148 765,148 601,148 462,206 346,322 231,437 173,577 173,740 Z"/>
  </g>
 </defs>
 <defs class="TextEmbeddedBitmaps"/>
 <g>
  <g id="id2" class="Master_Slide">
   <g id="bg-id2" class="Background"/>
   <g id="bo-id2" class="BackgroundObjects"/>
  </g>
 </g>
 <g class="SlideGroup">
  <g>
   <g id="container-id1">
    <g id="id1" class="Slide" clip-path="url(#presentation_clip_path)">
     <g class="Page">
      <g class="com.sun.star.drawing.ClosedBezierShape">
       <g id="id3">
        <rect class="BoundingBox" stroke="none" fill="none" x="27604" y="52240" width="7436" height="17831"/>
        <path fill="rgb(228,148,148)" stroke="none" d="M 31814,52288 C 32332,52405 32872,52669 33384,53061 33680,53286 34269,53879 34491,54172 34696,54444 34911,54881 34989,55177 35056,55445 35056,56119 34989,56447 34901,56867 34685,57446 34403,58017 34001,58832 33712,59319 32145,61792 30142,64949 28829,67337 27806,69694 27623,70117 27616,70128 27605,69994 27584,69687 28469,55442 28586,54260 28635,53749 28773,53484 29200,53061 29549,52711 29919,52489 30403,52337 30731,52232 31454,52207 31814,52288 Z"/>
       </g>
      </g>
      <g class="com.sun.star.drawing.ClosedBezierShape">
       <g id="id4">
        <rect class="BoundingBox" stroke="none" fill="none" x="41603" y="49369" width="6346" height="20899"/>
        <path fill="rgb(228,148,148)" stroke="none" d="M 46590,49389 C 47116,49460 47546,49724 47730,50088 47984,50596 48015,51643 47821,53139 47574,55055 46728,59041 46072,61359 45211,64417 43922,67656 42680,69878 42608,70007 42536,70137 42465,70266 42462,70078 42460,69890 42458,69702 42398,65165 42281,62957 41918,59207 41632,56254 41583,55524 41611,54656 41650,53580 41809,52889 42200,52098 42927,50631 44140,49664 45564,49417 45853,49368 46333,49354 46590,49389 Z"/>
       </g>
      </g>
      <g class="com.sun.star.drawing.ClosedBezierShape">
       <g id="id5">
        <rect class="BoundingBox" stroke="none" fill="none" x="0" y="33692" width="25505" height="32255"/>
        <path fill="rgb(245,53,90)" stroke="none" d="M 14162,33702 C 14240,33709 14476,33734 14691,33752 16286,33907 18300,34496 19845,35255 22202,36413 24114,38237 25147,40308 25334,40682 25504,41091 25504,41165 25504,41200 25313,41257 24823,41363 24452,41444 24121,41511 24089,41511 24061,41511 23937,41387 23817,41236 22794,39941 21164,39235 18960,39126 18498,39105 17570,39151 17295,39211 17257,39219 17220,39227 17182,39235 17267,39309 17351,39383 17436,39458 18219,40153 18907,41172 19207,42089 19401,42693 19450,43028 19450,43751 19454,44312 19439,44488 19372,44820 18991,46707 17954,48023 16331,48665 16187,48722 15936,48799 15774,48834 15545,48887 15488,48912 15506,48954 15598,49180 15827,49939 15926,50337 16162,51293 16261,52091 16261,53015 16261,53967 16144,54743 15887,55491 15280,57251 13661,59018 11781,59978 11304,60218 10648,60489 10359,60560 10267,60584 10193,60613 10193,60627 10193,60637 10334,60694 10507,60747 11375,61025 12017,61618 12285,62391 12373,62641 12395,62765 12409,63100 12426,63601 12384,63823 12200,64193 12038,64518 11647,64955 11301,65202 10990,65424 10408,65693 10010,65795 8990,66059 7960,65975 6958,65544 6641,65410 6023,65019 5801,64814 5754,64771 5707,64728 5660,64684 5725,64691 5789,64698 5854,64705 6348,64754 7516,64765 7851,64722 8546,64638 9093,64419 9350,64130 9593,63851 9604,63576 9378,63301 9085,62944 8581,62750 7653,62641 6799,62539 6228,62182 5939,61572 5709,61089 5660,60486 5780,59650 5854,59131 5911,59205 5219,58926 3582,58267 2693,57551 2178,56479 1536,55142 1635,53022 2415,51367 2605,50958 2845,50563 3057,50302 3097,50252 3136,50203 3176,50154 3123,50077 3071,50001 3018,49925 1765,48132 682,45885 263,44203 -295,41959 30,40322 1300,38996 1727,38555 2002,38346 2485,38107 3360,37669 4295,37563 5385,37775 5780,37849 6408,38047 6641,38167 6715,38202 6781,38230 6785,38223 6788,38216 6838,38092 6895,37948 7389,36643 8359,35459 9530,34733 10324,34239 11227,33925 12292,33766 12631,33717 13873,33674 14162,33702 Z"/>
       </g>
      </g>
      <g class="com.sun.star.drawing.ClosedBezierShape">
       <g id="id6">
        <rect class="BoundingBox" stroke="none" fill="none" x="33150" y="9493" width="28853" height="27242"/>
        <path fill="rgb(255,166,166)" stroke="none" d="M 46925,9531 C 48855,9679 51137,10318 52901,11200 56386,12949 58916,15899 59960,19433 60577,21522 60644,23764 60154,25966 60087,26266 59999,26615 59960,26738 59921,26865 59900,26975 59907,26985 59918,26992 60341,26975 60849,26943 61361,26908 61830,26883 61897,26883 62013,26883 62013,26883 61988,27013 61946,27246 61526,28470 61318,28964 60581,30714 59660,32146 58535,33300 56997,34870 55303,35856 53271,36367 51656,36773 50012,36836 47631,36582 45507,36357 41558,35993 38129,35709 37607,35666 37085,35623 36562,35579 36523,35356 36483,35133 36443,34909 35994,32340 35441,29938 34707,27373 33610,23539 33148,21144 33151,19282 33151,18428 33204,18135 33476,17567 34195,16054 35659,14223 37215,12889 40097,10416 43431,9266 46925,9531 Z"/>
       </g>
      </g>
      <g class="com.sun.star.drawing.ClosedBezierShape">
       <g id="id7">
        <rect class="BoundingBox" stroke="none" fill="none" x="33582" y="52169" width="5724" height="19823"/>
        <path fill="rgb(255,166,166)" stroke="none" d="M 36400,52183 C 37734,52282 38714,52994 39099,54141 39275,54670 39321,55076 39300,55950 39282,56603 39258,56861 39120,57806 38295,63475 37198,67543 35674,70555 35356,71186 34903,71969 34845,71991 L 34844,71991 C 34812,71992 34597,69176 33984,60695 33582,55171 33557,54751 33596,54398 33670,53746 33892,53255 34301,52842 34830,52313 35469,52112 36400,52183 Z"/>
       </g>
      </g>
      <g class="com.sun.star.drawing.ClosedBezierShape">
       <g id="id8">
        <rect class="BoundingBox" stroke="none" fill="none" x="23041" y="54090" width="6464" height="17782"/>
        <path fill="rgb(255,166,166)" stroke="none" d="M 26043,54115 C 26713,54196 27546,54531 28072,54929 28964,55603 29500,56549 29504,57455 29504,58062 29327,58507 28449,60091 27938,61011 26914,63050 26403,64165 25620,65869 24385,68705 23433,70988 23311,71282 23188,71576 23066,71870 23060,69359 23054,66849 23048,64338 23037,60200 23041,56672 23055,56503 23087,56104 23193,55723 23373,55346 23560,54961 23969,54534 24318,54365 24773,54143 25465,54040 26043,54115 Z"/>
       </g>
      </g>
      <g class="com.sun.star.drawing.ClosedBezierShape">
       <g id="id9">
        <rect class="BoundingBox" stroke="none" fill="none" x="50287" y="29983" width="2216" height="1748"/>
        <path fill="rgb(214,46,78)" stroke="none" d="M 50355,30083 C 50355,30241 50454,30584 50570,30820 50697,31085 50926,31296 51149,31360 51392,31427 51801,31388 52172,31261 52345,31201 52493,31159 52500,31166 52528,31194 52115,31473 51854,31596 51597,31720 51547,31730 51272,31730 50821,31730 50595,31586 50401,31166 50313,30975 50302,30908 50291,30467 50281,30129 50288,29984 50316,29984 50337,29984 50355,30030 50355,30083 Z"/>
       </g>
      </g>
      <g class="com.sun.star.drawing.ClosedBezierShape">
       <g id="id10">
        <rect class="BoundingBox" stroke="none" fill="none" x="22703" y="28021" width="26943" height="29650"/>
        <path fill="rgb(255,166,166)" stroke="none" d="M 41824,28039 C 42509,28096 43518,28307 44223,28544 47456,29623 49538,32114 49640,35035 49661,35560 49633,35851 48917,42960 48508,47017 48148,50453 48120,50597 47746,52389 46962,53965 45901,55062 44954,56043 43574,56869 42283,57232 41528,57444 42026,57426 32987,57556 28387,57623 24292,57676 23886,57669 23639,57667 23392,57665 23145,57662 23072,55105 22999,52547 22926,49990 22806,45771 22708,42102 22708,41841 22706,41682 22705,41523 22704,41365 25058,41178 27412,40991 29767,40804 33654,40497 36840,40240 36847,40233 36854,40226 36780,39629 36681,38906 36335,36402 36064,34156 35894,32389 35841,31828 35817,31327 35813,30678 35810,29789 35813,29757 35891,29613 36282,28875 37838,28233 39669,28050 40004,28018 41461,28011 41824,28039 Z"/>
       </g>
      </g>
      <g class="com.sun.star.drawing.ClosedBezierShape">
       <g id="id11">
        <rect class="BoundingBox" stroke="none" fill="none" x="26362" y="42816" width="2283" height="7033"/>
        <path fill="rgb(255,255,56)" stroke="none" d="M 27988,42819 C 28119,42837 28277,42904 28348,42975 28411,43038 28560,43296 28577,43373 28581,43391 28602,43476 28623,43557 28665,43740 28641,44301 28574,44537 28503,44802 28316,45169 28172,45328 28034,45472 27805,45613 27699,45613 27664,45613 27635,45617 27635,45621 27635,45628 27660,45719 27688,45825 27762,46097 27759,46107 27625,46107 27586,46107 27547,46107 27508,46107 27540,46203 27572,46300 27604,46397 27727,46778 27741,47233 27642,47455 27551,47660 27395,47843 27170,48023 26704,48393 26436,48803 26436,49148 26436,49452 26672,49780 26884,49776 27127,49769 27321,49251 27138,49088 27078,49032 27050,49028 26965,49060 26849,49102 26806,49081 26863,49011 26926,48940 27127,48954 27205,49039 27300,49138 27332,49360 27272,49505 27244,49565 27173,49670 27113,49730 27025,49826 26983,49847 26856,49847 26729,49847 26690,49826 26581,49713 26334,49455 26295,49071 26471,48693 26577,48467 26785,48231 27205,47875 27325,47772 27470,47614 27522,47522 27607,47377 27618,47324 27618,47025 27618,46771 27597,46629 27537,46442 27420,46086 27438,46100 27173,46139 27050,46157 26944,46166 26937,46160 26933,46156 27000,45998 27089,45807 27141,45693 27194,45579 27247,45465 27219,45428 27191,45392 27163,45356 26771,44820 26916,43624 27438,43095 27625,42904 27836,42798 27988,42819 Z"/>
       </g>
      </g>
      <g class="com.sun.star.drawing.ClosedBezierShape">
       <g id="id12">
        <rect class="BoundingBox" stroke="none" fill="none" x="24422" y="45612" width="1689" height="7460"/>
        <path fill="rgb(52,101,164)" stroke="none" d="M 25427,45673 C 25483,45702 25568,45762 25610,45804 25720,45910 25935,46255 25963,46375 25977,46432 25995,46492 26006,46513 26030,46552 26041,46598 26065,46813 26076,46901 26090,47014 26101,47070 26157,47395 25949,48065 25730,48259 25670,48312 25625,48365 25625,48379 25625,48390 25698,48513 25790,48651 25923,48852 25946,48905 25903,48933 25875,48951 25826,48965 25794,48965 25646,48965 25632,48997 25720,49169 25946,49635 25963,50175 25766,50605 25702,50739 25589,50958 25515,51085 25258,51526 25138,51903 25113,52341 25085,52827 25247,53070 25536,52975 25794,52894 25998,52542 25970,52239 25956,52122 25963,52069 25991,52080 26013,52087 26034,52179 26041,52284 26055,52517 25928,52809 25741,52964 25639,53052 25586,53070 25438,53070 25279,53070 25251,53056 25162,52950 25042,52806 25007,52616 25035,52239 25057,51992 25226,51381 25307,51275 25353,51216 25526,50894 25642,50658 25900,50136 25893,49737 25628,49173 25602,49117 25576,49062 25550,49007 25506,49018 25463,49030 25420,49042 25349,49060 25244,49081 25191,49088 25157,49094 25122,49100 25088,49106 25098,49026 25107,48946 25117,48866 25127,48736 25155,48594 25169,48549 25215,48425 25212,48422 25060,48333 24982,48291 24877,48196 24824,48125 24767,48055 24718,47988 24707,47977 24690,47963 24651,47882 24531,47607 24340,47173 24414,46245 24665,45892 24848,45635 25184,45539 25427,45673 Z"/>
       </g>
      </g>
      <g class="com.sun.star.drawing.ClosedBezierShape">
       <g id="id13">
        <rect class="BoundingBox" stroke="none" fill="none" x="26337" y="46226" width="3268" height="5709"/>
        <path fill="rgb(52,101,164)" stroke="none" d="M 29138,46234 C 29255,46263 29484,46506 29533,46658 29561,46732 29590,46929 29600,47095 29636,47642 29427,48238 29068,48626 28881,48827 28644,48961 28471,48965 28438,48965 28405,48965 28373,48965 28376,49094 28379,49223 28383,49353 28390,49565 28390,49741 28383,49741 28369,49741 28154,49586 28101,49536 28059,49497 28037,49505 27967,49568 27798,49727 27776,49833 27780,50471 27783,51131 27748,51332 27600,51593 27399,51935 27113,52016 26697,51851 26415,51738 26319,51582 26341,51258 26348,51131 26383,50969 26418,50894 26542,50630 26799,50471 26997,50535 27124,50573 27078,50612 26909,50609 26760,50605 26736,50619 26626,50743 26475,50919 26390,51187 26422,51395 26454,51614 26584,51741 26838,51808 27216,51907 27410,51808 27586,51427 27688,51208 27688,51198 27692,50517 27695,49790 27702,49755 27875,49547 27903,49513 27931,49479 27960,49445 27933,49422 27906,49400 27879,49378 27833,49339 27766,49289 27727,49265 27667,49219 27674,49205 27829,48982 27884,48904 27939,48827 27995,48750 27968,48688 27941,48627 27914,48566 27840,48411 27829,48330 27829,48012 27833,47589 27896,47310 28069,46965 28193,46711 28482,46397 28669,46308 28799,46245 29025,46210 29138,46234 Z"/>
       </g>
      </g>
      <g class="com.sun.star.drawing.ClosedBezierShape">
       <g id="id14">
        <rect class="BoundingBox" stroke="none" fill="none" x="28803" y="88" width="42466" height="24806"/>
        <path fill="rgb(245,53,90)" stroke="none" d="M 50182,125 C 51632,365 52577,1124 52997,2394 53212,3039 53251,3329 53248,4292 53248,5205 53191,5727 53004,6489 52955,6691 52916,6863 52916,6870 52916,6881 53117,6680 53364,6426 54489,5258 55453,4726 56440,4729 56853,4729 57111,4793 57492,4983 57844,5159 58296,5565 58546,5932 58659,6101 58733,6179 58772,6168 58800,6158 58959,6112 59125,6063 60264,5727 61661,5551 62829,5590 65584,5689 67644,6793 69020,8906 70198,10719 70340,13231 69422,16113 69080,17186 68371,18759 67793,19726 67705,19873 67616,20020 67528,20167 67577,20176 67627,20185 67676,20195 67881,20237 68452,20202 68703,20135 68978,20057 69295,19909 69574,19722 70068,19394 70706,18625 71017,17986 71080,17856 71144,17750 71158,17750 71204,17750 71271,18646 71267,19285 71267,20579 71049,21408 70579,21906 70220,22283 69549,22512 68816,22512 68350,22512 68036,22442 67666,22258 67108,21983 66685,21451 66498,20784 66456,20632 66389,20163 66339,19690 66156,17958 65930,16925 65471,15764 64480,13266 62603,11809 60014,11538 59435,11478 58433,11513 57947,11612 56437,11912 55174,12719 54218,13997 53936,14378 53583,14974 53424,15351 53350,15524 53279,15669 53269,15669 53255,15669 53163,15566 53061,15443 52789,15104 52242,14568 51840,14247 50792,13404 49649,12864 48418,12631 47935,12536 46838,12501 46330,12561 45136,12702 43979,13093 43058,13675 42423,14078 41961,14452 40941,15404 39791,16477 39393,16790 38581,17270 37780,17743 37280,18142 36768,18717 35886,19701 35420,20872 35572,21743 35650,22188 35798,22470 36133,22802 36465,23130 36549,23264 36549,23440 36549,23751 36281,24036 35756,24290 35262,24530 34680,24700 33886,24827 33346,24915 32235,24915 31843,24827 31028,24647 30732,24389 30256,23465 29102,21221 28552,17725 28915,14945 29173,12956 29825,11277 30908,9823 31244,9372 32175,8447 32581,8158 32923,7918 33607,7569 33971,7449 36158,6729 38751,7657 41199,10042 41679,10504 41703,10525 41686,10412 41573,9746 41527,8239 41590,7428 41760,5368 42356,3745 43397,2493 44444,1237 45892,492 47924,161 48197,117 48765,91 49274,88 L 49438,88 C 49760,90 50040,102 50182,125 Z"/>
       </g>
      </g>
      <g class="com.sun.star.drawing.ClosedBezierShape">
       <g id="id15">
        <rect class="BoundingBox" stroke="none" fill="none" x="33455" y="4545" width="6380" height="17298"/>
        <path fill="rgb(255,166,166)" stroke="none" d="M 37208,4676 C 37639,5396 37924,5929 38164,6447 38429,7029 38782,7858 38782,7897 38782,7908 38892,8257 39029,8673 39167,9089 39297,9520 39318,9626 39339,9731 39410,10056 39477,10349 39723,11435 39815,12275 39833,13538 39836,14074 39829,14621 39815,14758 39798,14893 39766,15203 39745,15446 39706,15873 39582,16738 39551,16783 39544,16798 39505,16974 39462,17178 39374,17616 39226,18173 39163,18321 39134,18378 39057,18586 38986,18780 38542,20001 37794,21073 37039,21574 36707,21796 36556,21842 36157,21842 35811,21842 35384,21574 35060,21151 34566,20512 34054,19256 33839,18163 33702,17475 33610,16928 33592,16681 33578,16536 33546,16170 33515,15870 33416,14882 33448,12504 33568,11707 33677,11008 33952,9703 34023,9566 34044,9530 34139,9252 34238,8941 34559,7950 35155,6821 35843,5897 36217,5396 36997,4546 37081,4546 37106,4546 37162,4606 37208,4676 Z"/>
       </g>
      </g>
      <g class="com.sun.star.drawing.ClosedBezierShape">
       <g id="id16">
        <rect class="BoundingBox" stroke="none" fill="none" x="56902" y="21555" width="2503" height="2374"/>
        <path fill="rgb(255,255,255)" stroke="none" d="M 58777,22029 C 58167,21498 57432,21401 57078,21806 56724,22211 56919,22926 57528,23457 58137,23987 58873,24083 59227,23678 59581,23273 59386,22559 58777,22029 Z"/>
       </g>
      </g>
      <g class="com.sun.star.drawing.ClosedBezierShape">
       <g id="id17">
        <rect class="BoundingBox" stroke="none" fill="none" x="56888" y="21541" width="2531" height="2402"/>
        <path fill="none" stroke="rgb(255,255,255)" stroke-width="28" stroke-linejoin="round" d="M 58777,22029 C 58167,21498 57432,21401 57078,21806 56724,22211 56919,22926 57528,23457 58137,23987 58873,24083 59227,23678 59581,23273 59386,22559 58777,22029 Z"/>
       </g>
      </g>
      <g class="com.sun.star.drawing.ClosedBezierShape">
       <g id="id18">
        <rect class="BoundingBox" stroke="none" fill="none" x="54410" y="20863" width="5294" height="5288"/>
        <path fill="rgb(51,116,216)" stroke="none" d="M 57709,20916 C 57825,20945 58062,21036 58238,21121 58774,21385 59176,21784 59437,22324 59642,22740 59702,23004 59702,23505 59702,24006 59642,24270 59437,24686 59176,25223 58778,25625 58238,25886 57822,26091 57557,26150 57056,26150 56555,26150 56291,26091 55874,25886 55335,25625 54936,25223 54675,24686 54470,24270 54410,24006 54410,23505 54410,23004 54470,22740 54675,22324 54936,21788 55335,21385 55874,21124 56047,21036 56294,20945 56421,20916 56714,20846 57420,20846 57709,20916 Z M 57497,21721 C 57307,21791 57271,21816 57190,21961 57123,22070 57102,22155 57106,22274 57116,22447 57257,22871 57307,22871 57324,22871 57338,22892 57338,22917 57338,22986 57677,23349 57857,23473 58104,23635 58446,23748 58661,23734 58972,23709 59187,23483 59180,23191 59169,22779 59028,22500 58633,22102 58527,21992 58146,21788 57921,21717 57804,21678 57610,21682 57497,21721 Z"/>
       </g>
      </g>
      <g class="com.sun.star.drawing.ClosedBezierShape">
       <g id="id19">
        <rect class="BoundingBox" stroke="none" fill="none" x="46402" y="20392" width="5102" height="4202"/>
        <path fill="rgb(255,255,255)" stroke="none" d="M 48952,20393 C 47506,20393 46402,21303 46402,22493 46402,23683 47506,24593 48952,24593 50398,24593 51502,23683 51502,22493 51502,21303 50398,20393 48952,20393 Z"/>
       </g>
      </g>
      <g class="com.sun.star.drawing.ClosedBezierShape">
       <g id="id20">
        <rect class="BoundingBox" stroke="none" fill="none" x="46388" y="20378" width="5130" height="4230"/>
        <path fill="none" stroke="rgb(255,255,255)" stroke-width="28" stroke-linejoin="round" d="M 48952,20393 C 47506,20393 46402,21303 46402,22493 46402,23683 47506,24593 48952,24593 50398,24593 51502,23683 51502,22493 51502,21303 50398,20393 48952,20393 Z"/>
       </g>
      </g>
      <g class="com.sun.star.drawing.ClosedBezierShape">
       <g id="id21">
        <rect class="BoundingBox" stroke="none" fill="none" x="45586" y="19993" width="6317" height="6324"/>
        <path fill="rgb(51,116,216)" stroke="none" d="M 49432,20034 C 50405,20257 51312,20990 51665,21837 51869,22323 51901,22506 51901,23159 51901,23702 51891,23808 51820,24041 51697,24447 51608,24634 51404,24944 51037,25501 50448,25946 49760,26189 49639,26232 49517,26274 49396,26316 49179,26316 48961,26316 48744,26316 48526,26316 48309,26316 48091,26316 47970,26274 47849,26232 47728,26189 47040,25946 46451,25501 46084,24944 45879,24634 45791,24447 45668,24041 45597,23808 45586,23702 45586,23159 45586,22616 45597,22510 45668,22277 45791,21872 45879,21685 46084,21375 46454,20814 47043,20369 47728,20133 48077,20013 48112,20006 48656,19996 49040,19988 49287,20003 49432,20034 Z M 48860,20779 C 48716,20842 48663,20895 48599,21012 48426,21357 48592,21939 49005,22425 49199,22654 49619,22965 49911,23099 50201,23229 50568,23275 50853,23208 50899,23201 51005,23120 51090,23035 51140,22983 51191,22930 51241,22877 51239,22762 51236,22647 51234,22531 51227,22217 51217,22168 51097,21936 50804,21354 50049,20782 49474,20701 49393,20691 49322,20680 49315,20673 49284,20645 49015,20705 48860,20779 Z"/>
       </g>
      </g>
      <g class="com.sun.star.drawing.ClosedBezierShape">
       <g id="id22">
        <rect class="BoundingBox" stroke="none" fill="none" x="27804" y="21492" width="12201" height="24637"/>
        <path fill="rgb(245,53,90)" stroke="none" d="M 35277,21512 C 35816,21604 36409,21978 37040,22638 38437,24088 38900,25548 38536,27340 38416,27926 38007,28938 37714,29369 37691,29404 37668,29439 37644,29474 37730,29569 37816,29663 37901,29757 39037,31020 39729,32515 39951,34198 40021,34738 40021,35847 39951,36397 39803,37558 39422,38849 38945,39791 38099,41477 36868,42437 35181,42723 34959,42762 34719,42793 34649,42793 34606,42793 34562,42793 34518,42793 34578,42827 34638,42862 34698,42896 35068,43111 35418,43601 35541,44081 35569,44194 35594,44420 35594,44582 35594,45432 35061,45982 34112,46109 32991,46261 31880,45450 31005,43834 30794,43442 30480,42762 30480,42691 30480,42663 30603,42762 30751,42903 31612,43725 32289,44021 32849,43823 33068,43746 33312,43591 33537,43382 33588,43336 33639,43291 33689,43245 33589,43183 33489,43120 33389,43058 32546,42529 31835,41788 31129,40712 30663,39999 30356,39301 30219,38631 30021,37657 30194,36560 30667,35773 30705,35712 30744,35648 30783,35585 30698,35528 30613,35472 30529,35415 29496,34724 28610,33016 28130,30801 27901,29728 27831,29196 27809,28360 27785,27340 27852,26793 28106,26021 28536,24698 29538,23625 30826,23110 31235,22945 31521,22878 31919,22849 32282,22821 32461,22744 32931,22401 33749,21809 34052,21639 34476,21541 34680,21491 35076,21477 35277,21512 Z"/>
       </g>
      </g>
     </g>
    </g>
   </g>
  </g>
 </g>
</svg>