<?xml version="1.0" encoding="UTF-8"?>
<!DOCTYPE svg PUBLIC "-//W3C//DTD SVG 1.1//EN" "http://www.w3.org/Graphics/SVG/1.1/DTD/svg11.dtd">
<svg version="1.2" width="712.96mm" height="719.36mm" viewBox="0 0 71296 71936" preserveAspectRatio="xMidYMid" fill-rule="evenodd" stroke-width="28.222" stroke-linejoin="round" xmlns="http://www.w3.org/2000/svg" xmlns:ooo="http://xml.openoffice.org/svg/export" xmlns:xlink="http://www.w3.org/1999/xlink" xmlns:presentation="http://sun.com/xmlns/staroffice/presentation" xmlns:smil="http://www.w3.org/2001/SMIL20/" xmlns:anim="urn:oasis:names:tc:opendocument:xmlns:animation:1.0" xml:space="preserve">
 <defs class="ClipPathGroup">
  <clipPath id="presentation_clip_path" clipPathUnits="userSpaceOnUse">
   <rect x="0" y="0" width="71296" height="71936"/>
  </clipPath>
  <clipPath id="presentation_clip_path_shrink" clipPathUnits="userSpaceOnUse">
   <rect x="71" y="71" width="71154" height="71793"/>
  </clipPath>
 </defs>
 <defs class="TextShapeIndex">
  <g ooo:slide="id1" ooo:id-list="id3 id4 id5 id6 id7"/>
 </defs>
 <defs class="EmbeddedBulletChars">
  <g id="bullet-char-template-57356" transform="scale(0.00048828125,-0.00048828125)">
   <path d="M 580,1141 L 1163,571 580,0 -4,571 580,1141 Z"/>
  </g>
  <g id="bullet-char-template-57354" transform="scale(0.00048828125,-0.00048828125)">
   <path d="M 8,1128 L 1137,1128 1137,0 8,0 8,1128 Z"/>
  </g>
  <g id="bullet-char-template-10146" transform="scale(0.00048828125,-0.00048828125)">
   <path d="M 174,0 L 602,739 174,1481 1456,739 174,0 Z M 1358,739 L 309,1346 659,739 1358,739 Z"/>
  </g>
  <g id="bullet-char-template-10132" transform="scale(0.00048828125,-0.00048828125)">
   <path d="M 2015,739 L 1276,0 717,0 1260,543 174,543 174,936 1260,936 717,1481 1274,1481 2015,739 Z"/>
  </g>
  <g id="bullet-char-template-10007" transform="scale(0.00048828125,-0.00048828125)">
   <path d="M 0,-2 C -7,14 -16,27 -25,37 L 356,567 C 262,823 215,952 215,954 215,979 228,992 255,992 264,992 276,990 289,987 310,991 331,999 354,1012 L 381,999 492,748 772,1049 836,1024 860,1049 C 881,1039 901,1025 922,1006 886,937 835,863 770,784 769,783 710,716 594,584 L 774,223 C 774,196 753,168 711,139 L 727,119 C 717,90 699,76 672,76 641,76 570,178 457,381 L 164,-76 C 142,-110 111,-127 72,-127 30,-127 9,-110 8,-76 1,-67 -2,-52 -2,-32 -2,-23 -1,-13 0,-2 Z"/>
  </g>
  <g id="bullet-char-template-10004" transform="scale(0.00048828125,-0.00048828125)">
   <path d="M 285,-33 C 182,-33 111,30 74,156 52,228 41,333 41,471 41,549 55,616 82,672 116,743 169,778 240,778 293,778 328,747 346,684 L 369,508 C 377,444 397,411 428,410 L 1163,1116 C 1174,1127 1196,1133 1229,1133 1271,1133 1292,1118 1292,1087 L 1292,965 C 1292,929 1282,901 1262,881 L 442,47 C 390,-6 338,-33 285,-33 Z"/>
  </g>
  <g id="bullet-char-template-9679" transform="scale(0.00048828125,-0.00048828125)">
   <path d="M 813,0 C 632,0 489,54 383,161 276,268 223,411 223,592 223,773 276,916 383,1023 489,1130 632,1184 813,1184 992,1184 1136,1130 1245,1023 1353,916 1407,772 1407,592 1407,412 1353,268 1245,161 1136,54 992,0 813,0 Z"/>
  </g>
  <g id="bullet-char-template-8226" transform="scale(0.00048828125,-0.00048828125)">
   <path d="M 346,457 C 273,457 209,483 155,535 101,586 74,649 74,723 74,796 101,859 155,911 209,963 273,989 346,989 419,989 480,963 531,910 582,859 608,796 608,723 608,648 583,586 532,535 482,483 420,457 346,457 Z"/>
  </g>
  <g id="bullet-char-template-8211" transform="scale(0.00048828125,-0.00048828125)">
   <path d="M -4,459 L 1135,459 1135,606 -4,606 -4,459 Z"/>
  </g>
  <g id="bullet-char-template-61548" transform="scale(0.00048828125,-0.00048828125)">
   <path d="M 173,740 C 173,903 231,1043 346,1159 462,1274 601,1332 765,1332 928,1332 1067,1274 1183,1159 1299,1043 1357,903 1357,740 1357,577 1299,437 1183,322 1067,206 928,148 765,148 601,148 462,206 346,322 231,437 173,577 173,740 Z"/>
  </g>
 </defs>
 <defs class="TextEmbeddedBitmaps"/>
 <g>
  <g id="id2" class="Master_Slide">
   <g id="bg-id2" class="Background"/>
   <g id="bo-id2" class="BackgroundObjects"/>
  </g>
 </g>
 <g class="SlideGroup">
  <g>
   <g id="container-id1">
    <g id="id1" class="Slide" clip-path="url(#presentation_clip_path)">
     <g class="Page">
      <g class="com.sun.star.drawing.ClosedBezierShape">
       <g id="id3">
        <rect class="BoundingBox" stroke="none" fill="none" x="1110" y="21582" width="25505" height="32253"/>
        <path fill="rgb(245,53,90)" stroke="none" d="M 15272,21592 C 15350,21599 15586,21624 15801,21642 17396,21797 19410,22386 20955,23145 23312,24301 25224,26125 26257,28196 26444,28570 26614,28979 26614,29053 26614,29088 26423,29145 25933,29251 25562,29332 25231,29399 25199,29399 25171,29399 25047,29275 24927,29124 23904,27829 22274,27123 20070,27014 19608,26993 18680,27039 18405,27099 18367,27107 18330,27115 18292,27123 18377,27197 18461,27271 18546,27346 19329,28041 20017,29060 20317,29977 20511,30581 20560,30916 20560,31639 20564,32200 20549,32376 20482,32708 20101,34595 19064,35911 17441,36553 17297,36610 17046,36687 16884,36722 16655,36775 16598,36800 16616,36842 16708,37068 16937,37827 17036,38225 17272,39181 17371,39979 17371,40903 17371,41855 17254,42631 16997,43379 16390,45139 14771,46906 12891,47866 12414,48106 11758,48377 11469,48448 11377,48472 11303,48501 11303,48515 11303,48525 11444,48582 11617,48635 12485,48913 13127,49506 13395,50279 13483,50529 13505,50653 13519,50988 13536,51489 13494,51711 13310,52081 13148,52406 12757,52843 12411,53090 12100,53312 11518,53581 11120,53683 10100,53947 9070,53863 8068,53432 7751,53298 7133,52907 6911,52702 6864,52659 6817,52616 6770,52572 6835,52579 6899,52586 6964,52593 7458,52642 8626,52653 8961,52610 9656,52526 10203,52307 10460,52018 10703,51739 10714,51464 10488,51189 10195,50832 9691,50638 8763,50529 7909,50427 7338,50070 7049,49460 6819,48977 6770,48374 6890,47538 6964,47019 7021,47093 6329,46814 4692,46155 3803,45439 3288,44367 2646,43030 2745,40910 3525,39255 3715,38846 3955,38451 4167,38190 4207,38140 4246,38091 4286,38042 4233,37965 4181,37889 4128,37813 2875,36020 1792,33773 1373,32091 1201,31398 1113,30763 1111,30177 L 1111,30128 C 1117,28839 1543,27789 2410,26884 2837,26443 3112,26234 3595,25995 4470,25557 5405,25451 6495,25663 6890,25737 7518,25935 7751,26055 7825,26090 7891,26118 7895,26111 7898,26104 7948,25980 8005,25836 8499,24531 9469,23349 10640,22623 11434,22129 12337,21815 13402,21656 13741,21607 14983,21564 15272,21592 Z"/>
       </g>
      </g>
      <g class="com.sun.star.drawing.ClosedBezierShape">
       <g id="id4">
        <rect class="BoundingBox" stroke="none" fill="none" x="23813" y="15911" width="26941" height="29648"/>
        <path fill="rgb(255,166,166)" stroke="none" d="M 42932,15929 C 43617,15986 44626,16197 45331,16434 48564,17513 50646,20004 50748,22925 50769,23450 50741,23741 50025,30848 49616,34905 49256,38341 49228,38485 48854,40277 48070,41853 47009,42950 46062,43931 44682,44757 43391,45120 42636,45332 43134,45314 34097,45444 29497,45511 25402,45564 24996,45557 24749,45555 24502,45553 24255,45550 24182,42993 24109,40435 24036,37878 23916,33659 23818,29990 23818,29729 23816,29570 23815,29411 23814,29253 26168,29066 28522,28879 30877,28692 34764,28385 37948,28128 37955,28121 37962,28114 37888,27517 37789,26794 37443,24290 37172,22046 37002,20279 36949,19718 36925,19217 36921,18568 36918,17679 36921,17647 36999,17503 37390,16765 38946,16123 40777,15940 41112,15908 42569,15901 42932,15929 Z"/>
       </g>
      </g>
      <g class="com.sun.star.drawing.ClosedBezierShape">
       <g id="id5">
        <rect class="BoundingBox" stroke="none" fill="none" x="27472" y="30704" width="2283" height="7033"/>
        <path fill="rgb(255,255,56)" stroke="none" d="M 29098,30707 C 29229,30725 29387,30792 29458,30863 29521,30926 29670,31184 29687,31261 29691,31279 29712,31364 29733,31445 29775,31628 29751,32189 29684,32425 29613,32690 29426,33057 29282,33216 29144,33360 28915,33501 28809,33501 28774,33501 28745,33505 28745,33509 28745,33516 28770,33607 28798,33713 28872,33985 28869,33995 28735,33995 28696,33995 28657,33995 28618,33995 28650,34091 28682,34188 28714,34285 28837,34666 28851,35121 28752,35343 28661,35548 28505,35731 28280,35911 27814,36281 27546,36691 27546,37036 27546,37340 27782,37668 27994,37664 28237,37657 28431,37139 28248,36976 28188,36920 28160,36916 28075,36948 27959,36990 27916,36969 27973,36899 28036,36828 28237,36842 28315,36927 28410,37026 28442,37248 28382,37393 28354,37453 28283,37558 28223,37618 28135,37714 28093,37735 27966,37735 27839,37735 27800,37714 27691,37601 27444,37343 27405,36959 27581,36581 27687,36355 27895,36119 28315,35763 28435,35660 28580,35502 28632,35410 28717,35265 28728,35212 28728,34913 28728,34659 28707,34517 28647,34330 28530,33974 28548,33988 28283,34027 28160,34045 28054,34054 28047,34048 28043,34044 28110,33886 28199,33695 28251,33581 28304,33467 28357,33353 28329,33316 28301,33280 28273,33244 27881,32708 28026,31512 28548,30983 28735,30792 28946,30686 29098,30707 Z"/>
       </g>
      </g>
      <g class="com.sun.star.drawing.ClosedBezierShape">
       <g id="id6">
        <rect class="BoundingBox" stroke="none" fill="none" x="25532" y="33500" width="1689" height="7460"/>
        <path fill="rgb(52,101,164)" stroke="none" d="M 26537,33561 C 26593,33590 26678,33650 26720,33692 26830,33798 27045,34143 27073,34263 27087,34320 27105,34380 27116,34401 27140,34440 27151,34486 27175,34701 27186,34789 27200,34902 27211,34958 27267,35283 27059,35953 26840,36147 26780,36200 26735,36253 26735,36267 26735,36278 26808,36401 26900,36539 27033,36740 27056,36793 27013,36821 26985,36839 26936,36853 26904,36853 26756,36853 26742,36885 26830,37057 27056,37523 27073,38063 26876,38493 26812,38627 26699,38846 26625,38973 26368,39414 26248,39791 26223,40229 26195,40715 26357,40958 26646,40863 26904,40782 27108,40430 27080,40127 27066,40010 27073,39957 27101,39968 27123,39975 27144,40067 27151,40172 27165,40405 27038,40697 26851,40852 26749,40940 26696,40958 26548,40958 26389,40958 26361,40944 26272,40838 26152,40694 26117,40504 26145,40127 26167,39880 26336,39269 26417,39163 26463,39104 26636,38782 26752,38546 27010,38024 27003,37625 26738,37061 26712,37005 26686,36950 26660,36895 26616,36906 26573,36918 26530,36930 26459,36948 26354,36969 26301,36976 26267,36982 26232,36988 26198,36994 26208,36914 26217,36834 26227,36754 26237,36624 26265,36482 26279,36437 26325,36313 26322,36310 26170,36221 26092,36179 25987,36084 25934,36013 25877,35943 25828,35876 25817,35865 25800,35851 25761,35770 25641,35495 25450,35061 25524,34133 25775,33780 25958,33523 26294,33427 26537,33561 Z"/>
       </g>
      </g>
      <g class="com.sun.star.drawing.ClosedBezierShape">
       <g id="id7">
        <rect class="BoundingBox" stroke="none" fill="none" x="27447" y="34114" width="3268" height="5709"/>
        <path fill="rgb(52,101,164)" stroke="none" d="M 30248,34122 C 30365,34151 30594,34394 30643,34546 30671,34620 30700,34817 30710,34983 30746,35530 30537,36126 30178,36514 29991,36715 29754,36849 29581,36853 29548,36853 29515,36853 29483,36853 29486,36982 29489,37111 29493,37241 29500,37453 29500,37629 29493,37629 29479,37629 29264,37474 29211,37424 29169,37385 29147,37393 29077,37456 28908,37615 28886,37721 28890,38359 28893,39019 28858,39220 28710,39481 28509,39823 28223,39904 27807,39739 27525,39626 27429,39470 27451,39146 27458,39019 27493,38857 27528,38782 27652,38518 27909,38359 28107,38423 28234,38461 28188,38500 28019,38497 27870,38493 27846,38507 27736,38631 27585,38807 27500,39075 27532,39283 27564,39502 27694,39629 27948,39696 28326,39795 28520,39696 28696,39315 28798,39096 28798,39086 28802,38405 28805,37678 28812,37643 28985,37435 29013,37401 29041,37367 29070,37333 29043,37310 29016,37288 28989,37266 28943,37227 28876,37177 28837,37153 28777,37107 28784,37093 28939,36870 28994,36792 29049,36715 29105,36638 29078,36576 29051,36515 29024,36454 28950,36299 28939,36218 28939,35900 28943,35477 29006,35198 29179,34853 29303,34599 29592,34285 29779,34196 29909,34133 30135,34098 30248,34122 Z"/>
       </g>
      </g>
     </g>
    </g>
   </g>
  </g>
 </g>
</svg>