<?xml version="1.0" encoding="UTF-8"?>
<!DOCTYPE svg PUBLIC "-//W3C//DTD SVG 1.1//EN" "http://www.w3.org/Graphics/SVG/1.1/DTD/svg11.dtd">
<svg version="1.2" width="712.96mm" height="719.36mm" viewBox="0 0 71296 71936" preserveAspectRatio="xMidYMid" fill-rule="evenodd" stroke-width="28.222" stroke-linejoin="round" xmlns="http://www.w3.org/2000/svg" xmlns:ooo="http://xml.openoffice.org/svg/export" xmlns:xlink="http://www.w3.org/1999/xlink" xmlns:presentation="http://sun.com/xmlns/staroffice/presentation" xmlns:smil="http://www.w3.org/2001/SMIL20/" xmlns:anim="urn:oasis:names:tc:opendocument:xmlns:animation:1.0" xml:space="preserve">
 <defs class="ClipPathGroup">
  <clipPath id="presentation_clip_path" clipPathUnits="userSpaceOnUse">
   <rect x="0" y="0" width="71296" height="71936"/>
  </clipPath>
  <clipPath id="presentation_clip_path_shrink" clipPathUnits="userSpaceOnUse">
   <rect x="71" y="71" width="71154" height="71793"/>
  </clipPath>
 </defs>
 <defs class="TextShapeIndex">
  <g ooo:slide="id1" ooo:id-list="id3 id4 id5 id6 id7 id8 id9 id10 id11 id12 id13"/>
 </defs>
 <defs class="EmbeddedBulletChars">
  <g id="bullet-char-template-57356" transform="scale(0.00048828125,-0.00048828125)">
   <path d="M 580,1141 L 1163,571 580,0 -4,571 580,1141 Z"/>
  </g>
  <g id="bullet-char-template-57354" transform="scale(0.00048828125,-0.00048828125)">
   <path d="M 8,1128 L 1137,1128 1137,0 8,0 8,1128 Z"/>
  </g>
  <g id="bullet-char-template-10146" transform="scale(0.00048828125,-0.00048828125)">
   <path d="M 174,0 L 602,739 174,1481 1456,739 174,0 Z M 1358,739 L 309,1346 659,739 1358,739 Z"/>
  </g>
  <g id="bullet-char-template-10132" transform="scale(0.00048828125,-0.00048828125)">
   <path d="M 2015,739 L 1276,0 717,0 1260,543 174,543 174,936 1260,936 717,1481 1274,1481 2015,739 Z"/>
  </g>
  <g id="bullet-char-template-10007" transform="scale(0.00048828125,-0.00048828125)">
   <path d="M 0,-2 C -7,14 -16,27 -25,37 L 356,567 C 262,823 215,952 215,954 215,979 228,992 255,992 264,992 276,990 289,987 310,991 331,999 354,1012 L 381,999 492,748 772,1049 836,1024 860,1049 C 881,1039 901,1025 922,1006 886,937 835,863 770,784 769,783 710,716 594,584 L 774,223 C 774,196 753,168 711,139 L 727,119 C 717,90 699,76 672,76 641,76 570,178 457,381 L 164,-76 C 142,-110 111,-127 72,-127 30,-127 9,-110 8,-76 1,-67 -2,-52 -2,-32 -2,-23 -1,-13 0,-2 Z"/>
  </g>
  <g id="bullet-char-template-10004" transform="scale(0.00048828125,-0.00048828125)">
   <path d="M 285,-33 C 182,-33 111,30 74,156 52,228 41,333 41,471 41,549 55,616 82,672 116,743 169,778 240,778 293,778 328,747 346,684 L 369,508 C 377,444 397,411 428,410 L 1163,1116 C 1174,1127 1196,1133 1229,1133 1271,1133 1292,1118 1292,1087 L 1292,965 C 1292,929 1282,901 1262,881 L 442,47 C 390,-6 338,-33 285,-33 Z"/>
  </g>
  <g id="bullet-char-template-9679" transform="scale(0.00048828125,-0.00048828125)">
   <path d="M 813,0 C 632,0 489,54 383,161 276,268 223,411 223,592 223,773 276,916 383,1023 489,1130 632,1184 813,1184 992,1184 1136,1130 1245,1023 1353,916 1407,772 1407,592 1407,412 1353,268 1245,161 1136,54 992,0 813,0 Z"/>
  </g>
  <g id="bullet-char-template-8226" transform="scale(0.00048828125,-0.00048828125)">
   <path d="M 346,457 C 273,457 209,483 155,535 101,586 74,649 74,723 74,796 101,859 155,911 209,963 273,989 346,989 419,989 480,963 531,910 582,859 608,796 608,723 608,648 583,586 532,535 482,483 420,457 346,457 Z"/>
  </g>
  <g id="bullet-char-template-8211" transform="scale(0.00048828125,-0.00048828125)">
   <path d="M -4,459 L 1135,459 1135,606 -4,606 -4,459 Z"/>
  </g>
  <g id="bullet-char-template-61548" transform="scale(0.00048828125,-0.00048828125)">
   <path d="M 173,740 C 173,903 231,1043 346,1159 462,1274 601,1332 765,1332 928,1332 1067,1274 1183,1159 1299,1043 1357,903 1357,740 1357,577 1299,437 1183,322 1067,206 928,148 765,148 601,148 462,206 346,322 231,437 173,577 173,740 Z"/>
  </g>
 </defs>
 <defs class="TextEmbeddedBitmaps"/>
 <g>
  <g id="id2" class="Master_Slide">
   <g id="bg-id2" class="Background"/>
   <g id="bo-id2" class="BackgroundObjects"/>
  </g>
 </g>
 <g class="SlideGroup">
  <g>
   <g id="container-id1">
    <g id="id1" class="Slide" clip-path="url(#presentation_clip_path)">
     <g class="Page">
      <g class="Group">
       <g class="com.sun.star.drawing.ClosedBezierShape">
        <g id="id3">
         <rect class="BoundingBox" stroke="none" fill="none" x="27557" y="14279" width="28851" height="27240"/>
         <path fill="rgb(255,166,166)" stroke="none" d="M 41330,14317 C 43260,14465 45542,15104 47306,15986 50791,17735 53321,20685 54365,24219 54982,26308 55049,28550 54559,30752 54492,31052 54404,31401 54365,31524 54326,31651 54305,31761 54312,31771 54323,31778 54746,31761 55254,31729 55766,31694 56235,31669 56302,31669 56418,31669 56418,31669 56393,31799 56351,32032 55931,33256 55723,33750 54986,35500 54065,36932 52940,38086 51402,39656 49708,40642 47676,41151 46061,41557 44417,41620 42036,41366 39912,41141 35963,40777 32534,40495 32012,40452 31490,40409 30967,40365 30928,40142 30888,39919 30848,39695 30399,37126 29848,34724 29114,32159 28017,28325 27555,25930 27558,24068 27558,23214 27611,22921 27883,22353 28602,20840 30064,19009 31620,17675 34502,15202 37836,14052 41330,14317 Z"/>
        </g>
       </g>
       <g class="com.sun.star.drawing.ClosedBezierShape">
        <g id="id4">
         <rect class="BoundingBox" stroke="none" fill="none" x="44691" y="34769" width="2217" height="1748"/>
         <path fill="rgb(214,46,78)" stroke="none" d="M 44760,34869 C 44760,35027 44859,35370 44975,35606 45102,35871 45331,36082 45554,36146 45797,36213 46206,36174 46577,36047 46750,35987 46898,35945 46905,35952 46933,35980 46520,36259 46259,36382 46002,36506 45952,36516 45677,36516 45226,36516 45000,36372 44806,35952 44718,35761 44707,35694 44696,35253 44686,34915 44693,34770 44721,34770 44742,34770 44760,34816 44760,34869 Z"/>
        </g>
       </g>
       <g class="com.sun.star.drawing.ClosedBezierShape">
        <g id="id5">
         <rect class="BoundingBox" stroke="none" fill="none" x="23210" y="4874" width="42463" height="24806"/>
         <path fill="rgb(245,53,90)" stroke="none" d="M 44587,4911 C 46037,5151 46982,5910 47402,7180 47617,7825 47656,8115 47653,9078 47653,9991 47596,10513 47409,11275 47360,11477 47321,11649 47321,11656 47321,11667 47522,11466 47769,11212 48894,10044 49858,9512 50845,9515 51258,9515 51516,9579 51897,9769 52249,9945 52701,10351 52951,10718 53064,10887 53138,10965 53177,10954 53205,10944 53364,10898 53530,10849 54669,10513 56066,10337 57234,10376 59989,10475 62049,11579 63425,13692 64603,15505 64745,18017 63827,20899 63485,21972 62776,23545 62198,24512 62110,24659 62021,24806 61933,24953 61982,24962 62032,24971 62081,24981 62286,25023 62857,24988 63108,24921 63383,24843 63700,24695 63979,24508 64473,24180 65111,23411 65422,22772 65485,22642 65549,22536 65563,22536 65606,22536 65668,23325 65672,23950 L 65672,24088 C 65670,25372 65452,26196 64984,26692 64625,27069 63954,27298 63221,27298 62755,27298 62441,27228 62071,27044 61513,26769 61090,26237 60903,25570 60861,25418 60794,24949 60744,24476 60561,22744 60335,21711 59876,20550 58885,18052 57008,16595 54419,16324 53840,16264 52838,16299 52352,16398 50842,16698 49579,17505 48623,18783 48341,19164 47988,19760 47829,20137 47755,20310 47684,20455 47674,20455 47660,20455 47568,20352 47466,20229 47194,19890 46647,19354 46245,19033 45197,18190 44054,17650 42823,17417 42340,17322 41243,17287 40735,17347 39541,17488 38384,17879 37463,18461 36828,18864 36366,19238 35346,20190 34196,21263 33798,21576 32986,22056 32185,22529 31685,22928 31173,23503 30291,24487 29827,25658 29979,26529 30055,26974 30203,27256 30538,27588 30870,27916 30954,28050 30954,28226 30954,28537 30686,28822 30161,29076 29669,29316 29087,29486 28293,29613 27753,29701 26642,29701 26250,29613 25435,29433 25139,29175 24663,28251 23509,26007 22959,22511 23322,19731 23580,17742 24232,16063 25315,14609 25651,14158 26582,13233 26988,12944 27330,12704 28014,12355 28378,12235 30563,11515 33156,12443 35604,14828 36084,15290 36108,15311 36091,15198 35978,14532 35932,13025 35995,12214 36165,10154 36761,8531 37802,7279 38849,6023 40297,5278 42329,4947 42596,4904 43146,4878 43646,4874 L 43874,4874 C 44183,4877 44450,4889 44587,4911 Z"/>
        </g>
       </g>
       <g class="com.sun.star.drawing.ClosedBezierShape">
        <g id="id6">
         <rect class="BoundingBox" stroke="none" fill="none" x="27862" y="9331" width="6379" height="17298"/>
         <path fill="rgb(255,166,166)" stroke="none" d="M 31613,9462 C 32044,10182 32329,10715 32569,11233 32834,11815 33187,12644 33187,12683 33187,12694 33297,13043 33434,13459 33572,13875 33702,14306 33723,14412 33744,14517 33815,14842 33882,15135 34128,16221 34220,17061 34238,18324 34241,18860 34234,19407 34220,19544 34203,19679 34171,19989 34150,20232 34111,20659 33987,21524 33956,21569 33949,21584 33910,21760 33867,21964 33779,22402 33631,22959 33568,23107 33539,23164 33462,23372 33391,23566 32947,24787 32199,25859 31444,26360 31112,26582 30961,26628 30562,26628 30216,26628 29791,26360 29467,25937 28973,25298 28461,24042 28246,22949 28109,22261 28017,21714 27999,21467 27985,21322 27953,20956 27922,20656 27823,19668 27855,17290 27975,16493 28084,15794 28359,14489 28430,14352 28451,14316 28546,14038 28645,13727 28966,12736 29562,11607 30248,10683 30622,10182 31402,9332 31486,9332 31511,9332 31567,9392 31613,9462 Z"/>
        </g>
       </g>
       <g class="com.sun.star.drawing.ClosedBezierShape">
        <g id="id7">
         <rect class="BoundingBox" stroke="none" fill="none" x="51307" y="26341" width="2503" height="2374"/>
         <path fill="rgb(255,255,255)" stroke="none" d="M 53182,26815 C 52572,26284 51837,26187 51483,26592 51129,26997 51324,27712 51933,28243 52542,28773 53278,28869 53632,28464 53986,28059 53791,27345 53182,26815 Z"/>
        </g>
       </g>
       <g class="com.sun.star.drawing.ClosedBezierShape">
        <g id="id8">
         <rect class="BoundingBox" stroke="none" fill="none" x="51293" y="26327" width="2531" height="2402"/>
         <path fill="none" stroke="rgb(255,255,255)" stroke-width="28" stroke-linejoin="round" d="M 53182,26815 C 52572,26284 51837,26187 51483,26592 51129,26997 51324,27712 51933,28243 52542,28773 53278,28869 53632,28464 53986,28059 53791,27345 53182,26815 Z"/>
        </g>
       </g>
       <g class="com.sun.star.drawing.ClosedBezierShape">
        <g id="id9">
         <rect class="BoundingBox" stroke="none" fill="none" x="48815" y="25649" width="5294" height="5288"/>
         <path fill="rgb(51,116,216)" stroke="none" d="M 52114,25702 C 52230,25731 52467,25822 52643,25907 53179,26171 53581,26570 53842,27110 54047,27526 54107,27790 54107,28291 54107,28792 54047,29056 53842,29472 53581,30009 53183,30411 52643,30672 52227,30877 51962,30936 51461,30936 50960,30936 50696,30877 50279,30672 49740,30411 49341,30009 49080,29472 48875,29056 48815,28792 48815,28291 48815,27790 48875,27526 49080,27110 49341,26574 49740,26171 50279,25910 50452,25822 50699,25731 50826,25702 51119,25632 51825,25632 52114,25702 Z M 51902,26507 C 51712,26577 51676,26602 51595,26747 51528,26856 51507,26941 51511,27060 51521,27233 51662,27657 51712,27657 51729,27657 51743,27678 51743,27703 51743,27772 52082,28135 52262,28259 52509,28421 52851,28534 53066,28520 53377,28495 53592,28269 53585,27977 53574,27565 53433,27286 53038,26888 52932,26778 52551,26574 52326,26503 52209,26464 52015,26468 51902,26507 Z"/>
        </g>
       </g>
       <g class="com.sun.star.drawing.ClosedBezierShape">
        <g id="id10">
         <rect class="BoundingBox" stroke="none" fill="none" x="40807" y="25178" width="5102" height="4202"/>
         <path fill="rgb(255,255,255)" stroke="none" d="M 43357,25179 C 41911,25179 40807,26089 40807,27279 40807,28469 41911,29379 43357,29379 44803,29379 45907,28469 45907,27279 45907,26089 44803,25179 43357,25179 Z"/>
        </g>
       </g>
       <g class="com.sun.star.drawing.ClosedBezierShape">
        <g id="id11">
         <rect class="BoundingBox" stroke="none" fill="none" x="40793" y="25164" width="5130" height="4230"/>
         <path fill="none" stroke="rgb(255,255,255)" stroke-width="28" stroke-linejoin="round" d="M 43357,25179 C 41911,25179 40807,26089 40807,27279 40807,28469 41911,29379 43357,29379 44803,29379 45907,28469 45907,27279 45907,26089 44803,25179 43357,25179 Z"/>
        </g>
       </g>
       <g class="com.sun.star.drawing.ClosedBezierShape">
        <g id="id12">
         <rect class="BoundingBox" stroke="none" fill="none" x="39991" y="24779" width="6317" height="6324"/>
         <path fill="rgb(51,116,216)" stroke="none" d="M 43837,24820 C 44810,25043 45717,25776 46070,26623 46274,27109 46306,27292 46306,27945 46306,28488 46296,28594 46225,28827 46102,29233 46013,29420 45809,29730 45442,30287 44853,30732 44165,30975 44044,31018 43922,31060 43801,31102 43584,31102 43366,31102 43149,31102 42931,31102 42714,31102 42496,31102 42375,31060 42254,31018 42133,30975 41445,30732 40856,30287 40489,29730 40284,29420 40196,29233 40073,28827 40002,28594 39991,28488 39991,27945 39991,27402 40002,27296 40073,27063 40196,26658 40284,26471 40489,26161 40859,25600 41448,25155 42133,24919 42482,24799 42517,24792 43061,24782 43445,24774 43692,24789 43837,24820 Z M 43265,25565 C 43121,25628 43068,25681 43004,25798 42831,26143 42997,26725 43410,27211 43604,27440 44024,27751 44316,27885 44606,28015 44973,28061 45258,27994 45304,27987 45410,27906 45495,27821 45545,27769 45596,27716 45646,27663 45644,27548 45641,27433 45639,27317 45632,27003 45622,26954 45502,26722 45209,26140 44454,25568 43879,25487 43798,25477 43727,25466 43720,25459 43689,25431 43420,25491 43265,25565 Z"/>
        </g>
       </g>
       <g class="com.sun.star.drawing.ClosedBezierShape">
        <g id="id13">
         <rect class="BoundingBox" stroke="none" fill="none" x="22211" y="26278" width="12199" height="24635"/>
         <path fill="rgb(245,53,90)" stroke="none" d="M 29684,26298 C 30221,26390 30814,26764 31445,27424 32842,28874 33305,30334 32941,32126 32821,32712 32412,33724 32119,34155 32096,34190 32073,34225 32049,34260 32135,34355 32221,34449 32306,34543 33442,35806 34134,37301 34356,38984 34426,39524 34426,40633 34356,41181 34208,42342 33827,43633 33350,44575 32504,46261 31273,47221 29588,47507 29366,47546 29126,47577 29056,47577 29013,47577 28969,47577 28925,47577 28985,47611 29045,47646 29105,47680 29475,47895 29825,48385 29948,48865 29976,48978 30001,49204 30001,49366 30001,50216 29468,50766 28519,50893 27398,51045 26287,50234 25412,48618 25201,48226 24887,47546 24887,47475 24887,47447 25010,47546 25158,47687 26019,48509 26696,48805 27256,48607 27475,48530 27719,48375 27944,48166 27995,48120 28046,48075 28096,48029 27996,47967 27896,47904 27796,47842 26953,47313 26242,46572 25536,45496 25070,44783 24763,44085 24626,43415 24428,42441 24601,41344 25074,40559 25112,40498 25151,40434 25190,40371 25105,40314 25020,40258 24936,40201 23903,39510 23017,37802 22537,35587 22308,34514 22238,33982 22216,33146 22192,32126 22259,31579 22513,30807 22943,29484 23945,28411 25233,27896 25642,27731 25928,27664 26326,27635 26689,27607 26868,27530 27338,27187 28156,26595 28459,26425 28883,26327 29087,26277 29483,26263 29684,26298 Z"/>
        </g>
       </g>
      </g>
     </g>
    </g>
   </g>
  </g>
 </g>
</svg>